<mxfile host="app.diagrams.net" modified="2023-05-02T15:37:32.340Z" agent="Mozilla/5.0 (Windows NT 10.0; Win64; x64) AppleWebKit/537.36 (KHTML, like Gecko) Chrome/112.0.0.0 Safari/537.36 Edg/112.0.1722.64" etag="_c76mQkZP0pwG-a1y2Q6" version="21.2.1" type="device">
  <diagram name="PÃ¡gina-1" id="SVa4KTFj8ty0u8lQOYBQ">
    <mxGraphModel dx="1392" dy="807" grid="1" gridSize="10" guides="1" tooltips="1" connect="1" arrows="1" fold="1" page="1" pageScale="1" pageWidth="827" pageHeight="1169" math="0" shadow="0">
      <root>
        <mxCell id="0" />
        <mxCell id="1" parent="0" />
        <mxCell id="Z0XVSoQSKU2gHx4yaWDS-14" style="edgeStyle=orthogonalEdgeStyle;rounded=0;orthogonalLoop=1;jettySize=auto;html=1;exitX=1;exitY=0.5;exitDx=0;exitDy=0;entryX=0.5;entryY=0;entryDx=0;entryDy=0;entryPerimeter=0;strokeWidth=2;" edge="1" parent="1" source="Z0XVSoQSKU2gHx4yaWDS-1" target="Z0XVSoQSKU2gHx4yaWDS-11">
          <mxGeometry relative="1" as="geometry" />
        </mxCell>
        <mxCell id="Z0XVSoQSKU2gHx4yaWDS-16" value="CreateCarContract()" style="edgeLabel;html=1;align=center;verticalAlign=middle;resizable=0;points=[];" vertex="1" connectable="0" parent="Z0XVSoQSKU2gHx4yaWDS-14">
          <mxGeometry x="0.2276" y="-1" relative="1" as="geometry">
            <mxPoint as="offset" />
          </mxGeometry>
        </mxCell>
        <mxCell id="Z0XVSoQSKU2gHx4yaWDS-1" value="&lt;font style=&quot;&quot;&gt;&lt;b style=&quot;&quot;&gt;&lt;font style=&quot;font-size: 12px;&quot;&gt;CarFactory Contract&lt;/font&gt;&lt;br&gt;&lt;/b&gt;&lt;/font&gt;" style="shape=image;html=1;verticalAlign=top;verticalLabelPosition=bottom;labelBackgroundColor=#ffffff;imageAspect=0;aspect=fixed;image=https://cdn2.iconfinder.com/data/icons/vivid/48/industry-128.png" vertex="1" parent="1">
          <mxGeometry x="364" y="410" width="100" height="100" as="geometry" />
        </mxCell>
        <mxCell id="Z0XVSoQSKU2gHx4yaWDS-10" style="edgeStyle=orthogonalEdgeStyle;rounded=0;orthogonalLoop=1;jettySize=auto;html=1;exitX=0.5;exitY=1;exitDx=0;exitDy=0;strokeWidth=2;" edge="1" parent="1" source="Z0XVSoQSKU2gHx4yaWDS-4" target="Z0XVSoQSKU2gHx4yaWDS-1">
          <mxGeometry relative="1" as="geometry" />
        </mxCell>
        <mxCell id="Z0XVSoQSKU2gHx4yaWDS-15" value="CreateNewCar()" style="edgeLabel;html=1;align=center;verticalAlign=middle;resizable=0;points=[];" vertex="1" connectable="0" parent="Z0XVSoQSKU2gHx4yaWDS-10">
          <mxGeometry x="-0.3035" relative="1" as="geometry">
            <mxPoint as="offset" />
          </mxGeometry>
        </mxCell>
        <mxCell id="Z0XVSoQSKU2gHx4yaWDS-4" value="" style="shape=image;verticalLabelPosition=bottom;labelBackgroundColor=default;verticalAlign=top;aspect=fixed;imageAspect=0;image=data:image/png,iVBORw0KGgoAAAANSUhEUgAAAjgAAAG3CAYAAAC5ey9mAAAACXBIWXMAAA7DAAAOwwHHb6hkAACblUlEQVR4Xu2dBbhUVduGDw0HDt3dXYKAlIqigomomJ+on40CxmejYiEiYoJidysqSIhISAhIKN3d3c3/PONe/Jtxzpk9M3tPPnNdcx04Z+8V91p77Xe96420NH1EQAREQAREQAREQAREQAREQAREQAREQAREQAREQAREQAREQAREQAREQAREQAREQAREQAREQAREQAREQAREQAREQAREQAREQAREQAREQAREQAREQAREQAREQAREQAREQAREQAREQAREQAREQAREQAREQAREQAREQAREQAREQAREQAREQAREQAREQAREQAREQAREQAREQAREQAREQAREQAREQAREQAREQAREQAREQAREQAREQAREQAREQAREQAREQAREQAREQAREQAREQAREQAREQAREQAREQAREQAREQAREQAREQAREQAREQAREQAREQAREQAREQAREQAREQAREQAREQAREQAREQAREQAREQAREQAREQAREQAREQAREQAREQAREQAREQAREQAREQAREQAREQAREQAREQAREQAREQAREQAREQAREQAREQAREQAREQAREQAREQAREQAREQAREQAREQAREQAREQAREQAREQAREQAREQAREQAREQAREQAREQAREQAREQAREQAREQAREQAREQAREQAREQASyIJBNdERABERABMIncPTo0Wz4pGXPnv24KWXPnj35d+zYUWT37t0ZBw4cyHf48OFc+Pux9PT0fRkZGbuKFCmyrUCBAnvDr1V3ioAIBCMgAScYIf1dBERABAIQgGCT/fjx49ly5sx59NChQ7k2bNhQZsaMGc2mT5/eYt68eQ02btxYevv27cWOHTuW0wg4uXPnPpA/f/7dZcuWXVe5cuWlDRs2nNWqVatxVapUWZYnT55DAi0CIuAeAQk47rFUSSIgAilCgMJNjhw5jlGw+f3330//6aefOo8fP77dypUrq0KYyQ2hJhv+ngbhx0fkyJEjadTyQCDy/Z8/UUZarly5jkDYWdO8efMpF1544fdnn332yMKFC+/E9Tlw/TGUcUIrlCJo1U0RcI2ABBzXUKogERCBVCBA4YXHURMnTmwzaNCg7hRs9u7dW4xHVRRqKMgE+th/TwHHCDwUdCgA4fhqb7NmzabcdNNNb3bo0GEY/r/f1JUKXNVHEXCbgAQct4mqPBEQgaQmsHnz5uKvvfbavZ988skN+HcZHDulUbChoMJPZgKOPxQKOfwaLQ+EGZ+gky9fvt3Q5vzQvXv3Fxo0aPC3hJyknk7qnIcE/tGf6iMCIiACIhCUwLRp05pde+21L0yaNOlMHC+lwW7Gdw+FE6eCjamE1/PLe82Hwg6OvTK++OKL62bOnHnKkCFDekEI+gF/11FV0NHRBSJwMgEJOJoRIiACIuCAwKhRo8675ZZbXlq6dGldCjc4pnJwV+iXUOjJmzdv2uLFi+t169btvbVr1z4OT6zB+N3B0EvTHSKQugQk4KTu2KvnIiACDgn8+OOPnXr27PnSunXrqhitDW81WhtjPOywuKCXUatDIQq2PYV79er1ItzNC+7fv78/jq8OBL1ZF4iACPgISMDRRBABERCBLAgMHz78/B49erwCt++KtLUxx1GhHkk5hWyEJZZPIQdHVrlfeumlh4sVK7YFdj5v03vLaVm6TgRSmYAEnFQeffVdBEQgSwKzZ89uhGOp59avX1+RmhsroJ/vHrvLt5cYKeTA+Dj/M88883SFChVWQcAaYQ8q6GXdKlsEEpmAN4fIiUxEbRcBEUh5AvRcQiTiQq+88soD8+fPbwSX7RNCDb2l+DVeUG7DMsbH9nJp77Nt27YST+MD25yabtep8kQgGQlIwEnGUVWfREAEIibwzTffXDVixIgL6QZu93SKuOAwC6AGCZ5VTQcPHtzt4MGDucMsRreJQMoQkICTMkOtjoqACDglAE+p6u+9996t+/btK8h7whVwzJFWJB5XRqNjvKu+/fbbK+Gm3tppX3SdCKQqAQk4qTry6rcIiMC/CDAaMdMvUHvDoykaFYf7oVCEstLg4p0Gjctx2NEcRxqHE8db4ZTL9mzZsqXkxx9/fDMTeoZThu4RgVQhICPjVBlp9VMERCAoAeZ+gvamIjynLoQwksMYFge6MTPXcCvv1HEm1qxdu/YiJNJcwjQMzFG1Zs2aishXVYmJOKHVyWGiGIdSPo/Mfvnllw5//vlnM9w3NmindIEIpCgBCTgpOvDqtgiIQGACkydPbr1w4cI69F4K9WMl0DyApJkjunTp8mmTJk2mI5nmWggyR/C3HDt37iy0YMGCusOGDbv4+++/vwLeWZVCrYdHVTA4Lvrzzz9fDGFqArOZh9pOXS8CqUBAAk4qjLL6KAIi4IgAAuulIwfUuTj+yWA0YScfo8nh8RNi1Wx+5JFHHr/mmms+yp8//z6/+4/gyGp7mzZtJuDaye3btx/Zt2/fx6dOndoaQk52CkdObHUo4FCLwySfyIVVAnVscNJOXSMCqUZANjipNuLqrwiIQKYEEKm4HD2VTFZwJ8H8TD6pokWLbunTp09PxM15M4Bw46sTgokvSB8EmiPQ8oweMGDA7c2bN59I4chJXbzXGC4vW7asxqJFi2rxd9DkaC3XvBYBPwJ6KDQlREAERMAisGTJkpobNmwom5VtjB2W0d5AIDp83333PXfFFVd8EQrMevXqzXvggQeeLleu3EqncXV4HTU90DblnzFjBu1wmJFc0Y1DAa9rU4KABJyUGGZ1UgREwAkBaEWqw+sp3Yk2hddQ2KD2pVmzZpNwLPVhOGkU2rZtO+6CCy4YgvYddVqv0RrRnodBCZ30TdeIQKoRkICTaiOu/oqACGRKAJm7KxgNSTCNCt3AeZQFbcqxyy+//PMiRYpshx1NyGsqPLUOUcCB/c5G2uE4+Zg2Ll++vBqScOZzco+uEYFUIxDyw5hqgNRfERCB1CAAzU0eGO2WhD1LDqfZwalJoWFx06ZNpzI/FP5/PBxaderUmVu9evXFTgIKGsHLeFMhpUThcOrUPSKQ7AQk4CT7CKt/IiACjgjgqCkX7Vp45ONEwKEdDI+nihcvvpmu4KwE94V1XJSRkbELiTRXONXgsC4KONDepCOIYB5HHdRFIpBiBCTgpNiAq7siIAKBCTBODdy489iTXWZlE0MhiBoXHDEdhJHvYZYajg0O74N31aF8+fLtcyJYmdazbRTKwhWqNA9EINkJSMBJ9hFW/0RABBwRoC0N3LcP85gpUEbvQIXQBgdHW3mh+SkQibEv7WiQ9yq/EyNjezsQq2c/2+2og7pIBFKMgAScFBtwdVcERCAwAQo3BQoU2E2Bwdi5ZKVRMbFyGGyPtju0wQlXyNm9e3dBxOCpEIp7OtuGFBD7qEHSmIqACPybgAQczQoREAERAAEKCiVKlNhIwcGJBsfYy2zdurXEH3/80dKy3QnLBmfx4sW1kNyzjlMNDo/GeC08t3YUKlRopwZQBERAAo7mgAiIgAgEJEANDI2FeUTFhJn8BBM4+HdmIEf28aupyaENTqiu4vTaQnLPi5ElnAk4HY0OUzVQwEKAwNWw3dnv6CZdJAIpRsDZ05RiUNRdERCB1CQAV+2F0IhsD6X3zFk1e/bsUz/++OObeB+FHCdHVUYQ+v33308fOnToJRRugglU9nZRCEO28rkUzPzbS6GL31D6oWtFINkISMBJthFVf0RABMImUKNGjYWlS5deT+1IKMIGBJrcr7766v8+/fTT/7ByY49DQcdf2DH/pyCEVAtNH3/88b6rVq2q5tT+huVTuEG+q/2nnnrqH9b/c1g/mbQzGw2fcdSm9T3smaAbk4GAHoBkGEX1QQREwBUCpUqV2tiwYcPZKMyxJxUrhoFyGgyFiyKv1GtvvPHG3cxKbgk52SHQ8OvTpvAnf89jqVGjRp13zz33DPz777+b8cgpWORk00EKXhRwIIwtqlmz5sJAQtQHH3xw66BBg7ozeCHvkzbHlemhQhKMQM4Ea6+aKwIiIAKeEYAX1d6PPvpozA8//HA5hIJ8TrU4NPqlBgYCRaHHHntswK+//trx+++/f3f16tUzypQpswbHWL4cDJs2bSo5bty4OkjM2eWnn366DFGIS/I+Y9jstGO4/thZZ501qmTJkpsoQNHzC0JPNibdhMt53mHDhl04ceLENrNmzWqMdA5PQlu03GnZuk4EkoWAzmiTZSTVDxEQAVcIrFixotK111777dy5c5uGcmxkkm+yERAy0mD8exBGwKuqVau2pHDhwtv27NlDV/CyK1eurLx9+/Zi1NrQ1ZwfpwH+THBB2Amt/+yzzy5v1arVJGpnUM5x8xPHXqd07tx56M6dO0shEOCR+vXrz+vVq9fj55133nD0x1myK1dIqhARiC0BaXBiy1+1i4AIxBEBGv5CI7LmkksuoYDTGAJFDqdaHLuQAuGGx1F5ICzVgAalhhFiWBaFGhomhyrYGNd1poegsNK4ceOZRqhhWRRy+PO3335rD9f1snB7p1Ypx7x5806566673vnvf//7JgSrl+laziMyCTtxNPHUFE8IyAbHE6wqVAREIEEJHIc9zdFOnTp906BBgz+dJL/MrJ/0iqJtDjU1/FLgsGttQuVjtDfIfbXu+uuvfw9B/vYbocrY2ODIq9C33357JTVPRqPEevH7Uv369Xvk1ltv/Qg2Pw0o3Djx9Aq1jbpeBOKJgASceBoNtUUERCCmBMxRD4x3F990002DIQjsp5BDo14n0Y29arzR/CCxZtpll132NbynplGoQfuMi7jP3ACGyx2gsalP4coEAzT2QRC2cuHvF1533XXf4HjrOtrueNVelSsC8UBAEzweRkFtEAERiBsC5qjniiuu+OLiiy/+hkdCxlYmVo2kgINcVWlNmzad0r1795eglTnEttjj3dBz6+233+4GYexEdnFjvEy3d/4bGqRssAGq2a1bt7cfeuih/mvXri3LcqTNidXIql4vCcgGx0u6KlsERCBhCdCjCukTnlu6dGk1eCO14nGT0YqwU3ajYrc76V82hayiRYtuhFDydKVKlVaxPiOIWa7nx7744otLpk2b5nM592+f0ehQ0LEMp/PCjfxuanumTJnyGP4+xe0+qDwRiDUBaXBiPQKqXwREIOYEoPXwBcjzb0idOnUWPPHEE49VrVp13qFDPqXJiTxV1IiEGn3YaUfttj/8N4L6bUM7enXo0GG4fxloRzakiSj+2muv3YMjrLz2Ntlzavnn14IhdHZEUT6ra9euX7z11lt3wuuqoNP26ToRSAQCEnASYZTURhEQAc8IGMEGQk5O/pvxZOyVtWvX7renn376AcSzWWESbIYat8Zp443RsMlJRdsfaGr2IoDgMxBE3vNPy0DBjBGRGdQPxsNNoXVyWpXvOh5ZwXW9EtzI+0E79DK1VSEVoItFII4JSMCJ48FR00RABLwlYAkIx0eOHNnx/fffv4UakEBu4RdccMGwV1555XZED/6bmhwvj6eMUTMNinEstf7ZZ5+9H95Pg0DimD8NBvb75Zdfzhk8ePCd+HeW63kgbQ5/Ry8rCG7pMDy+/oYbbvgciT/Px5GYzBe8nXoqPQoEFOgvCpBVhQiIQHwRsLQ2DJB3bNKkSS3vuOOOt+FKXfTll1++69JLL/0us9bSxuWZZ555Gkc77aBtyW2Og5wG6gtGgeVQawPB4xgSaf71yCOPPAnh6ie2M9C9CxcurAmvqK8XL17ckLY3Tt3a/YU4/t8IVoiTs/HOO+98mV5kxYoV2xaszfq7CMQrAQk48ToyapcIiMC/CJjAdoz3smTJkprUuJQvX35V2bJl1+Ilfdxp8DoG9LOSXZ5y9913D8bxzqmsDFGH5yNp5u1t27Ydb/JG+Tdi/fr1pd97771bkO/pFti+lGOeBKPR4U9zvBRo+OyCkP2Yy8S44REYtDabYGszDO3qX69evbksxx7Qz5SLtA8lIJi9B+3ThSa+TjiClhF2jAE1DZpRzmF4kA1BSok+Vm4uX5Z0TUkREAEREAEREAEXCfAoidF3WSQD1V111VXfwZtoI1IhbG3evPlsJLjsQTdpJ1WacuAhVfvMM8+clJGRcRyaiuMQLI7j30fbt28/EX+rYwkWAY99KPxMnjy55S233PI+hKK10HocKliw4HH8PI5AfMdLlCiR5dd+DexmjiOVwxEIatsgVIxCDqvLjMGvaavpl3HnRkTiwjfffPOHuM9XJ7+sk+WG+jVtNfexLPKAYfNxREuey5g55shKSTudzDBdEy8EpMGJl5FQO0RABDIlYLQpOIqpcf/99786ZsyYDiZPFLUesCPZg8zc/aD1eAlCyh68kHMwInFmBcKYtirKeR32Jh2ZVsFoXaxM3UeQ4+l3GBb/r1GjRjOpGWI5gTQYEKryIffTqT///PPFY8eOPXfVqlWVKWihTTnN8ZXd9oVaEqNl4TEUohHvYzJOCGmTO3bs+GObNm3GQdDaTg0T66SHFH+wDfhkp4Zq48aNJeFR9dxXX311I9rku87uvh7qNDIaHH+NEtuPvqRBiNp+4403vg2BalDlypVXhFq+rheBWBGQgBMr8qpXBEQgJAJ8scOb6FWkIuiCXE54L///8mV5Nx2AkezbsFvpDW3EVmod8JI+auLFmMqQG6rygw8++DKi+l5iT2lgbwwMiY9RuHn88ccfgRfVr9bfeAQW8JiGAgmC5pWDdqkxBZ5FixbVQXvL4hipFMrKQ0EF7TiKo6RD0IzsYRJOCAtLkQ5idrNmzabADX2pOV6jtor1GcHqn3/6BJxsaHsVGB33hpbnKvTtpDxZTnNm+UMPdp8llB2FEDaBNkGtW7eeoOOqkKauLo4RAQk4MQKvakVABJwToLAycODAHjDwfQov3HT/mC6W5iUN1x265pprPu3du/fDpUuX3hjIjubjjz++DpqeN3FPfqMF8rddsWxijuPYaBkiB/fr0qXL58jgvYvlMcVBMFsfCimwEyoCG51S0ILkp/aFwha0RftxlLWTWhEGErQT4D2WFoWClEnB4LvEOhJrjX71+eOPP5rj77ntmhdLIHIO1HZlZgKOXaPDa5ghHYLZynvvvbcvsq1/CEFtXyDboLAaoZtEwAMCcgX0AKqKFAERcIcAX/qM/bJ79+50eDudAW1IOoUSu0BiDHz5e1ybGxF9r8XLOB0pCR7E/1dSOLA0KD7tyznnnPPLbbfdNvDDDz+8BdcVZhoGHsf4x7bB77OtXr262pNPPvn8zJkzm86ZM+cVvNAX4ujrSLAjMEvTsxXV8evok5l2iPY4r7/++n/ffffdbshOXo0RlY2AF8nRVLBGGcHHeFjxKG/Dhg2VoNXqSx7w4HoBf1scrBz9XQRiRUACTqzIq14REIGgBHg0QwEHL3l6EmXPyg3aCCjUbvzwww+dDhw4kAeeVv/D/UtQkU8jYnlPbUR5T1OTAuPk+yDkFPHXgJiXO2PEUAiC1qfr1KlTW+II7B0IPd+grk0QvjI9sgrasRAu2LVrV0G4pbehfY89J1Y4HlMhVHviUhOx2STthHCXAR43QeBr8L///a8PmP6oI6twyOoerwko0J/XhFW+CIhA2ARoP0MNDI924K48E/+HXHEky/IonEDLkQcGxBciqeRgvIjrGeGGAhOPVXDctLtHjx4DYIvzFLyG1mdWJm17qN2BoJMbGov60F706d+//8NIfElNUlTcpmGEvA519rjrrrv6woB6IwMAGq1KNIUcIwSSB22g/vrrr+Yw7B703HPP9d6yZUsxwzjswdaNIuAyAWlwXAaq4kRABNwlwOMlCBNHYPfxAYx4G8I4+AL8Lkdm8WZs2pecEydObNuzZ89Bf/755z0Qjv5ky4yrNWxg9kE7MwhCw+4XX3zxkTVr1lQ1iSr9e2Di2yDezqqzzjrrF9y7291eZl6aJUitgVD1TP369f9CROX/IUlmI/Qnquu3EapMS3kkuG3bttIDBgx4kEk7Z8+e3RttmhUtLqpHBIIRkJFxMEL6uwiIQMwJGGNh5kqCFuX5YcOGXYoXLt6nOU5Km+BvMMv/40jlWPXq1f9+/vnn7z/77LNHG0NhdMp3xAS7npw//fTTJTRgXrZsWV1jeGw34qWGB/FiVqOMezt37vytf06oaAJi/B5qkXAMdwXalc8IX+YoyUutTmZlMzggGC+AMPnC5Zdf/gXc3/fjd9mgSTvJWDqanFSXCER1ByDcIiACIhAOASNQIKjeUtii3EeNzpAhQ7qYKMKZlckXMnM0QShohJfvG4j62wP3jMDRE4+qclgv4SP493fwCtrL+DJz5849hZocY7zMYyocke2k9xDTOMRSuGE/meF869at99StW3cObIh6wlOrLG2FjIbFtDuY+3c442Av2xbPh0k70xCjqDYSdg7A0dUpsFPqB+FmdWbRoMOpW/eIQKgEJOCESkzXi4AIxIyA9cJchZgz9+FoaSc8pm6EFiO30eRk1jAIL2k4gqoJIeX1b7755hG8qL+mkESXb95jxcoZgejEO6ghmjJlyhl8afMlDm3ELtjy9EfOpw/jxZiWOaLQ75d4ZPXSSy89hKO4NuhPTmOE7IVwY9javavsvC2D7EJIWno74gDVHjduXB8Ig7/FbLKo4pQnoCOqlJ8CAiACiUkAWowiiDb8NF+o/7zbc5xINhnoqIq9hGdVGoIArofr96MQWD6gNobpEOxxbWBL0pBCDqMlQ8jZd/vtt79GbyHErtkVj6TgDl/xzTffvAv5sW5D/woawSzabbULPjwWhL3SSrjjv9G1a9e3GUPI5P+KdrtUX+oSkAYndcdePReBhCYALcZ2GLn2wvHRPrzcu+Glmp6Z4TE1MfwyhgzyOJV57LHH+jIAHzySBgMCj6iMJocRjP/CMdV9sMnZAw+r7fAUejFehRsOIHJyrULfH0H28Xkwln4IsXKqo5+ZGmF7Peh0J4c2J/u6deuqPPXUU8/CMPwU8HweAugcHVl5TV/l2wlIg6P5IAIikJAETBRdxIkpQKNbRDq+BwbD+SjkBDqyoobBSumQRqNhCC2bEKX4JRw/vQy354PU5ODeY8bGBkHtSvEYi2kfEgEQhYdZs2adArftJ3/55Zfz8P/cPDYij6ziB7ndN2ObwzGwIkIfwVHaLGQmfxb5toYyUKLbdao8EQhEQAKO5oUIiEDCE4CQk/Haa6/dg+//oM0okJmdiNHksMP8NwSb7Ugi+SYSb/ZB4L+ouX57CRxGx8VxbHcLeSBdRAn08aTIz17WHfAlYwmWsJnaiqSdb915550vlyxZcrOOrKI9EqlXn46oUm/M1WMRSCoC1rHHbtif9GV8mr59+z6xZ8+eQtQg+Bvd2m1z+G9cV4SCAI6q8kJIeoJCjr8mJ9FgwZ19C5g8zyMrHBE9tWDBgnqwy6GdkU/Q8dKN3J+VqY91I3p0sZdffvkBHFk1QlyiJzE20600GsbIO9FQq71xTkACTpwPkJonAiKQNQG+RK3jKsgpB9+AQesOuHv3wQu1VFZ3GpscXJMXeZ5ux/FWbhguPw7BZwfvS2R7EeuY7Qe4bs/t06fP4/Acu5JHVrRBiubHCJQ8GrSEzZyjR4++AFnRq3700Uf9EGjxSybtjGabVFfqENARVeqMtXoqAklLgMcdJm8VXp6Vr7766u8QXfcUKwGnL0aM+RgNhj2Oi/W3A506dfoawtGjFSpUSJoYLkzW+cknn3SFO/kDmzZtYsycmKToMbnCaBNEbzYYh+9hVnIYcfcl76SdnOpYzAhIgxMz9KpYBETALQJGuNm4cWNJGA2/gsB+9U2WcJNx22QMN3X6u5LjBZwXmo6rkRIhP4IJ3oPrVyWDnQhdtMHg9SZNmkx/9tlnn4T7e3vY5TBGolv4HZdjGR37AgNCyCnw1ltvdYNbfmPEzHnsjDPOGGsMxx0XqAtFIAsC0uBoeoiACCQ0AXOUBPfvwtAGDEQKgyvRoRNvb77I/YWbQB02Ggb87UDr1q3HvvDCCz1r1aq1MKHh+DWenmH9+vV7+MMPP7wFtkbpwQIket13Cp/0aGOOL3i0vYiYOe/qyMpr6qlTvgSc1Blr9VQEkpYAYtqkIzP4S7DruI3aAbvWhvYfeIkyJ1I2Cjq0QwlwPHXiHl7P3EqtWrUah2Odu+DiPCcZNDlm8GGnlPv777+/nIIO0yuAR0722eTgivYksWVGP3zJJZd8/eijjz5RtWrVpWxHrNNiRJuF6nOXQPR1lO62X6WJgAikOAEIIzn5sv70009vMp5CduNWvNDTTj311EkIiLeIL3L+zXzt6EyeJQpBdK1mugZE4v3gjz/+aMEUDSYLeaLjhg3Ooauuuuoz2OV06dChwzAYVx+OZZ9MklCMXa4vv/zymi5dunw/YsSI841wA+FU76lYDlAC1y0NTgIPnpouAqlOgC7dCPB3N6IOP41/++Lf+BuzNm7ceDJe5lfB2LYQBJZ3YfPRDO7kJ6V1sGkRThgksxy8/NPq1as3G5qcO6HRmZTInlWB5gqP9QYNGnTX66+/fg/c5IuapJ281nZk5/k0MwIpNW8USOGuv4O2VIyZg2jSO/zTaXjeIFWQFAQk4CTFMKoTIpB6BChsIKDdzb169XoBBquFjZ2N0QjwmAmxYP784IMPrmMGbhJCTJhad99995tTp049k0dZ5mNe5v4xYvh/2ohUr159Hmxyepx99tmjk400hLhcyLLeEe7kvSD8NaEBMgWOaEZANoKpfTzQrmPgPRLpxh5s0KDB38nGXf3xnoAEHO8ZqwYREAEPCHz33XeXI/z/a9DMlDZHU8b2hsJNqVKllkJzc3Xz5s2nUQOAl+gxZg1HrqZKMEZ+A95EF/gLOYGaabQK0OT8DYHqKvyc50F3Yl7k0qVLqz3//POPw0j7cggXPgNkfsxxnpcBAu0CjtGmsX4EYkyrUqXKUsQrfBgu/N/GSzb3mA+WGuCIgM42HWHSRSIgAvFCgJob5lpCxu++OGIpTU0DbWtMviUeKyER52pEze1O4QbCDt/UNDL2fSpXrrwSx1o3X3755R/xOMQyQj4pVo69r3zRImZL2sKFC+tOmDChXbxwcLsd1apVW/rqq6/eBo3J/8qXL7+UsWpMJGIvhRvTD3+7KNaZnp6etnr16mp33HHHe0yQumXLlmK83iRHdZuByksuAoqDk1zjqd6IQNITgJBxBjymXlm/fn1VekRRsDFHTBRWYL+xGcctD8CAdjiFG2puoOE5IeDgd9lx3wa8LO9FfqRdH3/88a24JrfR/mQGEH/PsXbt2grJ5FHl31cIcgfwu4Hjx49nBOQnYGjdmmyiPamM9ohjQu0c84vBTui+GTNmnPr777/3QnsmRbtNqi/xCEiDk3hjphaLQMoSwPFSZRgUP7No0aJaJlAdd/4mnguMZHfBzbj3lVde+YUl9Jwk3BAchJtj/Mks4dBWPNyjR4/ncVS1O1DGbbsdCv59FJqhLalwTHL66aePQ/qK626//fZXYZC9mW72Xmpx7Joi828KqyaGEX9ijLJNnDjxzGuuueZbGEbfjYCM+VL2QVDHHRGQBscRJl0kAiIQDwR+/vnnS2bOnHkqgsGdOJJiu6xcR/t79uzZ76abbnobRxqOEjhCg7MHx1TP4ufuAQMGPARPomL2ODk0MDZHYLTBOffcc3+OBw7RaAOC760Dm0cbNWo0EwbWj+KIrg6FDKNd8bIN/kbfRpjlUSEypJfE8WQ/JO08ZcmSJc8wZo7i5Xg5GolbtgScxB07tVwEUo4AcimV5lGR3SiVmhe84PbdddddL8FDagDjvIQChtcj6ePrhQsX3oEXeS8cQ1Wk8bHRDFHIgd3Oot69ez9Ut27dpDQwzoyXxfIzeFfNJRvYPnWE0OMzQI5mqge79ogCKMYmF+Iedf3rr78aPPDAA89hjIbgKOtoKOOua5OfgASc5B9j9VAEkoYAUifMg+HpHkQu9rmFW/Y3hxHi/31qb3CcsjecztL2BGW9i5gr2yDIPAvNQC28RLPxxQoX87k4Fbv/nHPOGRlO2clwD7Q4s7dt23YLvMhuhYF2DwiaZRgzJxYfY4zM+iHgNEGKh7eQWLU+8pANgufcpli0SXXGJwG5icfnuKhVIiACAQgwMB2MX3sj4u11cCHOgLCz+9JLL/0aHjaPlyxZ0pWX27Rp05oz6SbsfaqXK1duJWw+PkQk5GmpPCDQkGSjobblwdahb9++vWjwS00KtTnRDApoxoF1sm6GBEC7jpx33nk/33vvvc+fdtppk1N5rNT3/ycgAUezQQREIKEI7N69u8D06dNbwH24Mnbs61u2bDkBnlO73ewEva9wFIOYd3kP6Ojj32SXLVtWtX///g99++23V8HYN4NaFR4defnxF6KM15s5vqIhNAIyzocm70UKvbSvSmaPNy9ZJ0vZEnCSZSTVDxEQARGIIgEmOIUm7VrEG7p/+fLl1WG35IuAHK1PoKjT1ObAlmobvOg+gwfYKxB4lkSrPaon/ghEbzbGX9/VIhEQAREQgQgJIBnpac8999yTY8eOPQtF5WLcGiPoeHl0lZXbOuyzDjZr1mwSDJCfgcv7b/KyinCQE/R2CTgJOnBqtgiIgAjECwEEXSwD4+PuSI1xE1JnFIeAE1Vtjp2DPY5OhQoVliHB6uvXXnvtB0WLFt0eL7zUjugQkIATHc6qRQREQASSmgCTdg4dOvSSV1555X+IVdQEmpyc9HSzu/R7qdGxwzURkOniD9ugvchj9Q1CCLxYv379OTSUtv5+Irp1Ug9MCndOAk4KD766LgIiIAJuE4DLdl0ETXwABshXwsg3L2MKGYNg/6zhbtcdqDwGgcTnCDKSz0CspAEXX3zx9zAePxiNulVHbAlIwIktf9UuAiIgAklHYOvWrUUZiI8pFejtBoEi5u8aClmFChXahJhJ7yLS9SvwwNuYdODVoZMIxHzSaTxEQAREQASSjwBdtJE7qi2TdsIQuTWOp3JTgxPNCMiGqjF65pEVPkcRtJExc/rAEPmPVMgtlnyzy1mPJOA446SrREAEREAEwiAAF/IqjH6MrO03wbU8I1YRkE3TaQdEQQc5rBYyvcdVV131CXKb7Quja7olzglIwInzAVLzREAERCDRCTDzN21yXn311ftoo8OYOYxCbOURO6l70TBEZh2sG4LNdgo4yCjfDx5XqxOds9p/MgEJOJoRIiACIiACUSGACNTN+vXr9wiSdnaAgJHXZCaPdoBAUx+FHHyPNm/efCJj5rRv3/4X3xnW0aPMmi4vq6jMCu8qkYDjHVuVLAIiIAIi4Edg8+bNxd955507Bg8efCf+XZpHVsY2hwJHND/U5NAmCBGQjxcvXnwt7HJeuO666z5g6g8JOdEcCW/qkoDjDVeVKgIiIAIikAkBxswZMWLEBS+88MIjs2bNaoJYNTlM8sxoanOM2zrrpjs5hK29HTt2/Omhhx7qXbt27QXKZZXYU1gCTmKPn1ovAiIgAglLYNGiRTVfeumlB5m0E0JPOhN22m1wohE3x1+gQpLVtJo1a/79yCOPPMWYOUy2arKpJyzoFG24BJwUHXh1WwREQATigcCuXbsykOLhBkZA3rhxYzkGQDbpFih8xEKjQyEHBsi7mOYBBsgvMs0DhJzsaFt0z9DiYYASuA0ScBJ48NR0ERABEUgWApMmTWr9zDPPPPX777+3hVCTiwbIsYiZQ54UqnhkBaHmyFlnnTXq6aeffgiRkP9OFtap0g8JOKky0uqnCIiACMQ5ARog9+/f/6EPP/zwZsTMKcTM5MadPJqaHCPksE5oc46VLFlyDY+s/vOf/3wAoeuYspPH+USymicBJzHGSa0UAREQgZQgAI+mnLDJ6fLss88+sWLFiuo8sqKgw2OraH7sAhW1Ofj//quvvvpjGCA/XbZs2bUScqI5GuHVJQEnPG66SwREQAREwEMCDAjYu3fvZ4cPH34BhAnYH+fyHRtFyy7HX2NETdLu3bvTTj311Mlo16Nnnnnmbx52X0W7QEACjgsQVYQIiIAIiIB7BIxB786dOwsyXg4NkPHvoibNg4lf46VWJ9CRmHVklYY4OZvuu+++vjBCHpgvX74D7vVcJblJQAKOmzRVlgiIgAiIQMQE6JbNQnA05TuXGjNmzNkPP/zwi3Arr4c0D7moyfH6k5XND+vH93CnTp2+eeyxxx6vUaPGEq/bo/JDJyABJ3RmukMEREAERCDKBFavXl2BR1ZfffXVlRB8cvPIikkzvTI+dlLugQMHjtWtW3f2gw8++OxFF130A9rkS1euT3wQkIATH+OgVoiACIiACAQhABuYAp999tl/EAH5sU2bNpWFNiemAg5TS1DISk9P337rrbcOvPvuuwcg5cNWDWR8EJCAEx/joFaIgAiIgAg4JDBlypSW1OYgZs7p/mkeTCRkY5/jRBPjxJYnUDkUbhirhz9xZHWsQ4cOw3CU1rtp06Z/QvjJRgHIHLM57Jouc5GABBwXYaooERABERCB6BBA1ONSL7/88v/ef//9W/fs2ZMBY9+wKw5XwDERl1kx/410E2lVq1ZddP/99z932WWXfQ2j6P0ScMIelohvlIATMUIVIAIiIAIiEAsC0JzkGDJkyOUvvvjiw3Arr09tDjUq9nxW9n9n1kY3BBxTNuL4MM3DNmQl/7Bnz54vlitXbl0s2KhOGKkLggg4IQD1azbEgTjOLMDcLSHKaP59+/blx8IAzW02n6eD/0/+zUnZukYEPCIQTmQ4J3P2X+WauY/nA5v2PAfwPZg3b9790Crsx88DTNjoUR9TuliL65dz5syZ+9xzz/VGhvLzIWDkpQGy+Tg5oooEor18Clc8lmKwwvnz59dFZOaSKFsCTiSAI7jXycMcQfG6NRkIbNmypfjSpUtr4IGtj289/LsWf4ckeQXxMGdnH40ww5/+v6Pskwwc1IeQCYQqYIR6faAGuVFGyB3Fi+2omft46R6B0em+UqVKbSpTpsy6atWqLa5Xr95fderUmcMIuBB+DoVcgW4ISmDbtm1FPvjgg1sYN2f9+vUVIOT41iYnAk4kGhx7w2iLgxg5m6+//vr3brnlloHQ3qx1KtzCIys30kLkxcYxHeXk4nzivDLziYIyjKoPBwWhC/5fuBULEQhEYP/+/Xkp0EyYMKEdYlCc99dffzWC1qYAf88FgzsV/rSfQZuFJBTjPtEXgWQhYJ4H7uD5DPAnP3zBZWRk7KlQocLK1q1bj2/btu1vzZs3nwzhZz3/brSjycIhlv2ghhnr1TkDBgx4cNq0aaehLbnNuDAScWafcAUce3k8mqpcufICHEv1u+aaaz6mMIKxpZB1nNpv/7q5ltKOaPHixbWhgWqIjWNNuMJX2r59exEKORRwIKQdorAMz6wtFStWXFG9evVF9evXn12rVq35RYoU2e5UeIrlmMSybu2sY0k/DuvmAjF9+vQWn3/+eddff/31nDVr1pRHM3OYpHcMcGWiiLL59vNts5CYbjnZOcUhAjVJBEImYBfu7S9Lk1bAykzN5+V4gQIFdjdp0mT65Zdf/sU555wzHILOWlYY6CUYckNS/AYTAXnlypWVXnvttfu+/PLL66BpLkLhxisBh+NN4QbxcGYiG/oD7dq1+9VaG8379SQBB+3JmDFjxqlIQXHx5MmTWy9btqw63N8LoZzsxivLrKVmXnH+WNnVjyPx5wYEFlxw+umn/8b5A+3g39DuHEzxoQ/YfQk4mhV0caQAc3TBggV13nvvvdt/+OGHzhs2bCgHLQ13ECftRo1LpF14Mf+2L/ISbjSxUolAZgIOGdifD/6bLzHLEHVvs2bNptxwww1vn3feeUMh+Oyla7GSOEY2cxgFmZ5LjJnz3XffdWGahyVLltSARsWnwrFvxPy1zlnVnNmaRs+p2rVrz4ahc3do58azDK6pxi6Lmhiurzh+yk239i+++OL6cePGtcMay80jNXw+4cWuDfffJFru5j6tIL8oKw1r87Hy5cuvuPDCC3+84oorPm3YsOEsBRo8eQQl4ET2LCXF3cz3AqHm8kGDBt2NY6mGeDCZ2e5E9l5/9W0gdW6gh19CTlJMD3UiBAJZHXUEeh4sm42tl1566Te33377K3hRzg+hOl0ahAAFDR5VQch54LfffmuP/6cbL6tQ4QUaPwo3VapUWQB39TuZfJP1ofx/zibxMcIqUkzUpH0QBK4rYB9UiW3g11+QsQvEmc0lY8hsEo/inmOVKlVa3LVr13e6dOnyGey8ZNRsgZWAE+osT7LrGf4cD+eD3FVgx5NhBBujWrd3125b4//wSZhJsomh7nhOwH78wJcVs1Qzfsq55577M3b0J16SnjckBSqgrcubb75594cffnjLjh07StptCJ12377GGTurwoULb+zfv383CKjfUrixBJRjlp3icdrg/PLLL+dhjX1g6tSpZ9qP921CUMAmZCUsGyHNaH04f2ivg+OxkQ888MDTmEvTnPYrma+TgJPMoxukbzBsa8BooKNHj77IGA6bW+y2NSmMSF0XgagRoDYARw4rH3rooaeuuuoqn5Fq1CpPgYrgJJEOu5eLeGQ1c+bMU8AXcsL/a1GCIbALODwiwv0HkYOqN42KeRzFoyj+5JcCKryi8jCtBASgh9auXVuNR1H+R2JubAztghDnEIyQZ/Tq1etxHHv+nOrHnYqDE2xWJ+nfZ82adQp2i/0nTpzYLlA+FzcevCRFp26JgCcE+BzCqL/S448/3hfa1ILwsnkTcXQOeFJZChaK4Hv70O0v4RG64NVXX70fAQIvg0CQj1rrUNY7am9wPdMy/PTf//73TQgzvhAB/BIrhRva27zzzju39uvX71FojErZ4/K4jd4uNMHYOO3vv/9uAsHrZcYqg2bnm1TWBkrAcXu2xXF5xvgOqtIW9957b394S7U2D7fR2EhzE8cDqKYlPQHEyEnDC7E4k0nyhYkX5RuKm+PusMMYdzbieN3TuHHjP3lshWP6yhACHGtzuEbC7mbxfffd16do0aLbeQxFrQ1j1rClDPL36aefXsvoynD5LkXB1f8TikAVSu/ZNgo58CKr/uSTTz7HYJNo37BUFXIk4IQyexL8WupPV6xYUalHjx69YXjXmoupOcP16oFLcGRqvghElQCfRx5lwPC/GF+QsPHgC/SjVH1BeQWfcWVQ9svwZpr1/PPPPwFNdmswzpWVK7lpC8bo2JVXXvnpKaecMoNeb/g9hRva2/iivSO8xhl9+/Z9dOvWrWXsNo1e9cWUa1/DKVRBcKv27LPP9mZwSVwzw+v647F85weQ8dh6tSkkAjQixsP8JB7q8yjlB/pI0AkJqS4WAU8IUMjB7r8Entde9P7xpBIVmnbGGWeMfeONN/57xx13vIaAetvpvu9vj2gTbNJgV5OGGDRzEcjvI/N7Y+dC4YbeUtS+wVPqXzY3mRkN+6+5ka7Bph4KOcjP1Rg2QI+iPaVTcbgl4KTIqFONCrXpjXBTvJIPkN0jKtIHKkUQqpsiEFUC3P1jF161T58+Ty5cuLAWK8cLWGu2y6OA7N/LnnrqqYdhL9MdaTXmIYrwcdrZGE8ru4CDdfMotDefwC17paW9OdEaGhXD7uaOKVOm+Lyl7N+smuwkDEcoXeZ6bouinW3kyJEXwEv2PwziSjOFUMpK9Gv1sCT6CDpsPyJmtnnrrbfuZK4TJ2pYh8XqMhEQAQ8JUJPDOC54drsztD+Du3lYXcoWTTsnaGU+gYBy/cUXX/w9NoSHqM3xE27SkC5hdadOnb71197w/xBsWjLODf9N7YlZZ51sIM2mk3GRjB2kPVSHEVicDJBxRaeARiEZZdKbqyu0OfUYANFJGclyjQScZBnJLPqBJHRFsUD2WLVqVTXa3ZgHJ9DPFMChLopAwhDgM4oXZbZvvvmmC+KpdGDDU20XHs3BQgqNP+FhddvDDz/cG7meNkCoPCFwQENzHHFmRkN7s8K0iXY3/DejJiOQ362MAM81lh+nGhxzrRGEeAzGelkf3dGNhoexbkyqnGABJfl3CkW8nsIWjs7qfvXVV9dSixNNnrGuSwJOrEcgCvWPGDHiQsS6OZeeAqHsBKLQNFUhAiIQhIBlj1McHj/dGbDOiUZAUMMjwCNAeEZtRbC85wYOHHgTYsrMglBAA2J6Jx3o2LHjj0y74J9Sg56pTPJpHDfMOmvXwgRqkdHWmPQLEEb2MJFmmzZtxiHg43AE7JsCg+g1KOcQtTtm7IPNAaMRMgEJ6WAydOjQSyDo+I46U+UjL6okH+lNmzaVvO22265hJnDjrpiV9O8mjmAPodm5BKvTrXJMPcHKc8onWDlO+8frgpXltE1OynLarmBtclqOm21ysyw3+xdsDkfyd76keNQwadKkNrCnOP/6669/P5LydG/mBOxHgIhzMxw5rBbDm+2hTz755CYEYdzUokWLyeZuo72hVgQBU8+lez/X2KxCbdhtH005DM4HwWgvckoNQwLWz+GdNR0xe/YyMjEErtybN28uOWHChDMRt+cK5LJqi3mbm/PBCFHB1gZex+MyavDHjh17Nv4/N1UCAErASfKnnbY3f/7556mBYjEkedcDds/JSy0eudgNw7NqX6L2Lx6Zx0ubzAsTL7tczI6NI+chjL8SL+1L1nZYbt9LcFTUDRm758DQu36hQoV2mv6a7O8QHEqPGjWqYyjPnhlTamUQU2c+jsSeuuCCC360ghGeSICMuvbiy7FeiNg93+CY6Rq6teNIrJg9X2BmY2DaRCGHmdahZToPUbI/wfVbk3Xc7P2SgJPEo8wkmohW3Bk/i9jDhCdxl9U1EUg6AuYlxU0KtDitqclBJ39Kuo7GWYeMAIOjqYNo2ssQMIoxarG/99Ts2bNPWbp0aS2usU4/HFNqbnAc9ddrr712GzRDU3gvy+aXx2CmLBOgFUdVW/G316FJWoVArYMQRqBMKKkmqMVBWxsjFloVCThOR0rXxSUBuoUjJHkNng3T9oZnyKE8gKF0KrOdSyg7mmhpJdxqE9sbj2XFY5tSgZV9/gY7Mgjl2bKz4wsKLsx5hg0b1gnanOHYwR8JtSxdHz4BChiB7sY625ipGZBWw3Hh9NCCNmgL0nL0onDD6MeMhGwdHZ3k6WT3fKImBkdZP8IWqwxylr2M+/I4WdctY/U0HHeVmjt3bgM0dLrjxibwhc5FzgTuZCo2nZFPP/roo0YI2V2RUn4kruH2M2XzAuXvKDRhd3GMhnn+L1bbPfaH1bMYDFmde3sx/k7rc3qdF22MRpnR7l+M6nPqWovmHc9GTQuED+YmOhFLxQ2hh88wA3TCbbwFclZVwPguj8YYq47MCfDYBzaO1c0VgWxs/O/mWsmjKdjbfNG+ffuR3IzimqNGY5QVbyPs4IjqE0RMPg+Gw52cHlVZz062xYsX12bmc7uWKFnHWAJOko4sg04hJcOZUIP6dhaR7Ozt91oGcRRujpcoUWJdnTp15hUoUGCXtdM88SLgQh8Ere9alB3s5XEiiV2woXJQFg0A7e0K2EaUEzTWiFVOsD76kvIFazf/jvKCejQ6KcsqJxhTJ9wdtcnhGPpzD4jEYf+CMnezTZmUlSlfPm/IHF0R9ho1rUSO2SmYOLWhymquGGNRbFqqUGsgAcfJk+XtNTj+L4wjn6qhxLyhcIO1c8Nll132JY+//D2ynLQ4IyNjD+xxvoJ3bAfcn9fJ+s6NLo+7MD/LQ+NEX3YmH03qjwScJB1eTuKZM2c2Mck0I11gzc6Z6lBY/O+8++67X4M3xzuM6JmkCNUtEQiLALxpCtG4HxGIH8cz2BTPXg4nLyCnle3ZsycduZNOhwA1FNqi/49G57QAXecaAQo4/IZiC0MBBxvD+dWrV18UjnBjGk9vqwoVKqxctmxZLafZyikkI0dWCWyAmasn6QWcoLtG12aCCooqgTlz5jSiMZnZPUZaORdoPhylSpVaOXjw4Gt74SPhJlKquj8ZCSBB5k7ESxmG6LGXnX/++UOxW/YlY4y0r9xk8MtNBgUcCFJFIi1T90dGADZR6QjKl88IsMEEWSMIIT3EEnpkYU0N+x0Mm6DNlStXXhFKbDO2DwJOMbY7sp4nxt1hw02M7qVmK2mw9scff7Tmg2ceqEhtAKxAV7uQnfZ+Lt7ceZg4EKlJWb0WgcAEzHMBb5c1L730UrczzzzzN0aldYsXd+vYtVfHMVUjt8pUOeERgDYmZ6jCAtdkHOvvpkcW/u3oCDtQ66BJP8hs86EIz5Ym3/Gxf3hU4ucuCTjxMxautQQSenEIOK0Y4j3YjiJYpRSMuEOg7U3nzp2/RKyGH3gPHyonRnHBytffRSDZCNifi3Llyq1FjJMn+SKKdJNhOFEry8CdyH1Ed3F9YkiAdn/8Ojmism82IQT7zENCEU78u0ntD+eBv9t6Vjg4dyAgp8yxpgScGD4cXlVNN0BE4KxujpUi8TwxR1zp6el7IeB8pTN/r0ZN5SYrAdpKNG3a9E/mFXLjYx1VZaeAQ3sfN8pUGeERgAPH/oIFC+6khjvYhxtFfrkuI0t8pVA1P/7lI+BjMdhalg1lE8u5wzZT+xOsvcnwdwk4yTCKtj7Q5RAGjm0RBKqYfccQyjmtHYl5KHHWu7xRo0YzkwyXuiMCnhLg7hqbg/1I0jgKz6MrcWv4kuLGg04EVtA2T/ugwjMnwKMmejTRcDjYx6ylHDu4ateyXP3pkRrWe5hjv3z58sqhhABh/B20dxfzagVrbzL8PSywydDxZO0Dom2WoAcHz6Yo2du/4faZ2W3POOOM35Bdd1u4Zeg+EUhFAuYIAkkT/4BR6S7zkjPHVeEcW3Hjwlg72MQURo6idqnINV76TENhHkM60aJw3MwXkY+rMy8U++EkvIV/f2lnOXz48AvpwRWKgMNySpcuvY5anHhh6GU7JOB4STcGZePBqTFv3rw6JjWDkwcvq2ZyAWashrPOOos7UNcMJWOARlWKQEwIUIuDXEZ/1a1bdy5t2cyzGcnRMTvCl+W4cePaM9ljTDqmStOYOwru3gsxxiauV1AqHHfa4Hz++efXQ5NTg+tqqFoc5hf84YcfLoU9jeN3uBVH6VjNmjUXpIqpgWM4QUdNF8ScABdSnMu3RgbxUibuTTg7RHtHqNKkN0iTJk1SIrR3zAdRDUg6AnyBUXtz+umn/8Zghk6i3QbbdJgoyfCkaoBjiqpJBy2BOtSgQYNZ2AQeciqwcm2GDUwaQnmcgkzljyDtQgl214mxMK+hfeVzzz3XG0dc1ZykaTAoKeBAC7+1YcOGsxIIb0RNlYATEb74uplu4bS/cRBF2HHDebaMXCmTodbc4PgmXSgCIvAvAm3btv0N9jj7uGmI9MOXKd3F161bVw755k6LtDzdHz4BGJH/WbZs2TVcK50YG5uamCMQ2eGvfeqpp56F0XEFJxpyCEUNkED51d9+++1cJyka7L3inKlRo8YiJPicH35vE+tOCTiJNV5ZthY7uWp4AOpzd+DWhwngzj777JFuladyRCBVCfBoAN+FTgxSnTDiERVTc8AO5ywn1+sabwjABmdNy5YtJ1K4CUXAoSYHQk4uHFXd0LNnz7eGDBlyKbQ5Jf01Odi45kV6jkrvv//+zd26dXsHOag6MidZKB/TttNOO21isWLFAiYNDaW8RLlWqRoSZaQctHPGjBnNsKMrSwHH/2gqnKMqLsQVK1Zc1axZsykOqtclIiACWRBg5FkY64/Bc9oElznKqZUVUKPFwbF0Szz3ZaBFWK8BiC4BK9XCPmhiRsImpjO0cwVCaYHlBJILGpnzMC+a1q9f/y+EFJj2zjvvrKCHFj4FkXG8FuKatUR+s3oINZCfx1JOj8NMW6wo9OuQ3HNEKmWhl4ATymyM02v5kDF5Wvfu3c+CpJ7LhHRnc8M1MmYZEHCO47z2Lwg5KxmdVYH94nQCqFkJQYDZm0eMGDHu3XffvR3Pa4bT8P6BOmdscOhBs2rVqsq0vcN13yQEiCRqpNk40gkDnnLTfv/993aB1txg6zCPmyDMFIfR+Fn8UghhpGOighG5TyVPzzlqbkI94rTqPtamTZsJqWZLqSOqJHnYmFwTlvVNueDZtTXhaG6MYETPgFatWo2nxb2EmySZKOpGTAkgyeKcKlWqLKN2lEdMwV58wRrL+/HCyzVp0qTTudFhtuhg9+jv7hHgukjuyA6+pUuXLp9AANlrQgGEWgvXbrhv+774d06s3RRsoJDP4zNK5lhz3oQyZ7j+UyBCJO2tV1xxxWcISrg71HYl8vUScBJ59Ky20zgNQb+aYSdXiQ9JuEH97ChYBjw/drdu3Xp8EiBSF0QgLgggWe0G7qKNW3E4jTLaG/Oc88gCdjhnICZKIfxboRzCgRrBPcY4+Nxzzx1OTzljYxXu5tJsMCMVgM0xFgSioxdffPH32KxOcOKpFQGKuLtVAk7cDUnoDYK6OzeyC5+BgHx5I30oTO2M1wH3x79pGBl6i3SHCIhAIAKMKYWjgrGIn7KfAko4L0GTgsXs5CngMP4VU7SIeuwIlClTZv1tt932Kn6uNkJo7Frzj3kCtTdYx/+88847Xy5atOj2cOZbLPsQad0ScCIlGAf3r1+/vizcw1thoWOW2IhaZOx3KPUjC/JohiGPqEDdLAIicBIB2GpMQWypVaEeN9gLsR9TcFODvEb5Ro8e3UGoY0sAGpyx8HR6GTY0+0PxqHKz1eYdQOEGWvjNPXr0eBGu4QuovUk1UwMJOG7OrBiUxUnLnduyZcuq0VDNqDfDaYrltug756UFP3ea4ZSje0RABDInQLfixo0bz+QLKBR7isxKNEcR48ePb7dr164MsY8dAdordu3a9V18B6MVh0P1dgq15YHsLU2QV9jt7KFwc8EFF/zIYzQncXZCrT/er5eAE+8jlEX7GN6bQf1oYLh379507hgiWTDNw8hyqlWrtljJNRN4cqjpcUsARqQHYA8xDhpX3wvQjQ83N/Pnz6+HKLc13ShPZYRPAAa9Ox944IFnr7766g+xAT1iMoiHX2LwO+2CFOvDHNt+1113vYQjszd4LBq8hOS8Qm7iCTyuUDceQ2CoUhBw2tCF0GQPj6RL1hHVMcTrGMvw8pGUpXtFQAQCE0D02+nQ5KzbsGFDJTfs5rixgfamIBPtosY/xT12BKyQGpuxNj8KQWMfwgLcAaEjF1283QryaHpntDUmqTITI0PA2kLNze233/46NPF7Y0ci9jVLgxP7MYioBYsWLaqNb016T4WSlySzSi3p/yC9ASJqmG4WARHIlEDlypWXIwHnPOMJFakmx2SUHjNmzHl4ieYQ+tgRMHYu8Jjb1KtXr8cfeuihJ5EDaj207Bjm4xFp2TPrFculcFOpUqWlzzzzzAOwA3qFwg3mQkq/41O687F7BNyrGe6h7egeyhLdMGqDRxYfkuWplK/EvdFQSSLgjAB22dsZYwovQ8aYcnZTFleZqMbz5s2rS3u8iAtUAa4Q4HEVckf1HThw4M0MuQFNywGusU4E2kDXGBMEIyjxJ7VC2NzuveSSS75FOodrrrvuug9hf4NqDub2SVQp/NERVQIPPj0nLr300rMwh3MYVWWg7oQyx+kejtQMf9AQMoHRqOkiENcEaPCJqLeTcAy8AxuUEpEeL/P5pwZ38+bNpRDWvxU6vyiuAaRQ4xjBGt39Gd6uM7/44otrP/zww5uZERxjBtk2h0+jY44puUk1/7ZyjZ34u/FwNT+hEWIAwCNYr6fRqPmiiy76ngIVHU9QDss+nOpxkSTgJPCDxuMp5Cep7WZyTZwTH6J7eCrlK0ngKaCmJzCB6tWr+zI7I4ZViUifYRN3hYkZkYyxAzy0PtEzHB+TgwIHxwcCx3poVV5h0D249J+H3FVXzJo16xQIuBn4e3YKqP7pO8zm1Py0DJaPIq/ZRgg2U1HWd+3atRvNPGccb6uubEySnGou4YFGWwJOfDwDIbXCSvB2HPln2uzYsYPRS0O63/9iY+XPn9DcrIUBpIwUIyKqm0UgOAGE99/E7M74tOELLhIPSBP8jxoBGBq33LRpUym0YG3wVugKrwnQ09Wq4zgE2cP491J8ByL31EezZ88+BVHom06dOrUljharY9xKQjOfjmOnXPzyqAkOJAex8TzAxMcIvDofcZT+oJYdnq5L6JFnohObn5gLKX0sZR/PyN6MXs8MlR+QANWPUE/mxlnr+ThSym3UnOHiMgsrk2tCuJmJrMRaGMOFqftEwCEBekEOHz58EiLMbmOixUgEHFbJ++kujqOQcvSsxK++dNgUXRYFAmZjaqqygqhOwP8nYB1/DWt6xtatW4vDG67Qnj17CjDHGAUcemJBGN5Muy3+H99DLINhQqxQIb4iKdjw6NO/nih0LW6rkIATt0OTecOYZRYuiKUh+Z9ikrBF0g0KSDz7xc8jyIo7UtGLI6Gpe0XAOQEE/PuTyTeRKLc4Qz24IeSgDMbGOgMblm8s+w/nDdKVrhCAcJIT9lAlmXuMgiwFEUso8UUTpiu5qYj/x9jTTmeH9f1XG+gZx7Gk8GKOoViuKZPyjRF6IOQco4Ex3xFIG7EulY8q5UXlynSObiGU0hnvYsuWLcW4Y4vUQJFHUxRw8DBubNGixaTo9ka1iUDqEoD2ZiuOHKbiGOOYGy7Elq1G9mnTprWgNiB1yca259DG5H/sscf6wkV8wPLly6tQGLEiCTPjO93mKJBQFg3YUMtQ2KehsTQyPmGGH9uRl+//VgR6X/nU4vz9998N4Cb+3vPPP/84NfyxJRHb2iXgxJZ/yLUzrgF3BzAk7IiJn5MugpG6h1ODw7DxderUmYdz3pUhN0o3iIAIhEWAxw0tW7b8Hd5Uu7lRMXFxwirsn5ef74UHB4RaCxYsqBNuObovMgLUovCoacCAAd0vu+yy4a+++uo9a9euLUtBh5oYo33JqhYKMv7CTKDrTQoGJFytihg4vS+//PKh77333rW05WE7IutJYt+tI6oEGz88HMdWr15dDju0ZuZ4KlK1NhdVPAhHEKdhHM579ycYEjVXBBKaQN26df+m3RtchwuZiLThdsjkk0PQt3zjxo07G+WMDbcs3RcZAQoe6enpx1esWFHrySeffP6jjz66CVqdocgN9QPGfB7GikLtCYNgu+0Mf8/NKwUU/xxStqOp7Nu2bSuK481mI0eOPB9u4uevWbOmKgVlZKs/Qk+qyHqQ+HdLwEnAMYRwc9qqVasq8njKHvgp3K7wQWJaBhxPTUzl89pw+ek+EYiEALSmK/DCm8sgfQznH8nHxMOhppdBQGG8XEA2dZEQjfheGv7yHCr34sWL60KrVveDDz64GePt84b68ccfJ8IzagHGaBdc/LfjuhMbTLv9FLX2EFrzILVHQcyTItTQ3XfffWcz5hHKrc2YaLThoketpQnkcVXEjU/0AiTgJOAI/vLLLx1xLEULe59KOpRAfoG6i7KOc0dRu3bt+QmIQ00WgYQmgN028xWNGTZs2IXoSD43OsOXHF58NREni8dU09woU2U4J2Bctc2RIbQzxyCA0OYmGwSZ4hBM2iLQY1tsKO9BGoetDKxavnz5Nd27d1+P/2+j5xT+BrnmcC7a8yC3VPF169aVh4BTmkddCA9ShPmtuMmliQGu9212be+CiMIOOO9pfF8pASe+x+dfrYPhYNHzzz//FDebTQGHdgB8sNwsV2WJgAg4I9CkSZOpNPKHi3dlJ6kbMtvUmND9FHDwEixKLY4EHGdj4PZVjG3EMi0hJ7sZM44NtS384pMDtjolsa6X/Ouvv5oYIYVadRO80Rxb2uOd8d+B5ontiJPqm5SPhyMjY7dntcflIfJlUxiTVaf2hrYzkWpveD+Ssu2DgDNBx1MeD56KF4FMCCBo22Ik35xj8hRF+lxbL7ocdBdHTJX8Ah8zAlmeE5nUDNDi+bQwXNf5xZqchmOrNNjw+H5PTY0RatzIPh8zGlGuWBqcKAOPtLrx48efhbPY/Jz0JgJxJGVyp1CjRo3lOKKaE0k5Tu/lOTIM4SrAULoy40TQGJLqXPSF7pABBW7+PZGjcwZqu/GOKFas2GYYmK5hglNo0HgGzzP0qO+84E6aC2EHSuBsvw6iqZbGizaP0zEN8bqo9y2z9mU1p2ALs5+2MTg2WM2Iw14L/wULFtwNT5uxOH4+Fy+93P6hH8Kxp+A9c+bMqc/nDQwWhDhOujwKBMw4cx22j7E52jIaHZOXik0KZy5EoStxWYUEnLgclsCNosEgLPDPhmrSl9sk0onOMrCYHkO4+N8ZEMpLFMyRg5D0p99zzz1X4fzZF0oeL9W8Ro1rglcFakOk/YygX+FY6Z30Ag/QdvN3X8AuvDh9kUobNWo0C2M7hB4WaG9UI0nPmDGjKbw7/gOvm7MYBRdCJ0PFM4FrVsJIOGwiGIqwbs1SmArUPxPunh4o2FXvrlChwqqOHTsOg6DwTf369T3dBMDodAoEXsiZW8q69XxjPMswZpYEnLDmT6Q3JcIzEmkf4/p+CThxPTwnNw7W8/VhhV/byRm9k25Z7oQ8nvrdix2qcXtcuXJlpccff/zeb7/9tguja5qIrXz5mx1MpO6xTvobi2uyEs6sCNI5YSuRH3GNzoEAeAYYXY1EfE+ffvrpv/Ely7AAbrebUVQZPZWeF++8884dV199dU945VVge4zRYgyFSre7G1J59nkI24h8iBZeEoHTGsPbpdNnn33Wv3Pnzl+B0SEvEhlWrVp1KTxqFkH4L+tnMOrrQ6hjwmeL3jeYV2dCaP0YWqmDIcHQxW4QyFLICTSm/r8LddytRku4AgjZ4LgxhaNUBrME4zw9I9LIxaa5PO/n8UjTpk2nut0FI9wggVzVBx988JW33nqr+/bt20vzaM3efje8wNxuezTL4+JFgc/KJp2bOYQYhRSZhi8Lc2HLsvmMjMqXM+0ynnrqqWchePaFd0YF2gCwDf4Cp3nhp9JPA9B4p0DIzDl//vxGmMcDBg8e3I3HqvZQ+27NF2aEbt68+RRUd8iNsWf7qe1lnBRocsq61U6V45iAhAzHqLy5UAKON1xdLxWugunYibV1S3vDBvLcF8LNdC+Sa9KOBEGoirzwwguPw/31EhOjgQJNpNFaXYcb4wKtQIu+VjAOClxBy/Xu3bsPw+171bS3336726BBg3pgnHLSkFFjkjVpzt+dO3cWe+mllx6CNqczj1bdFnIY94THVDAw3eOGgMNnjesF3Ior0DnBq7mkcuOLgG0zEjf2brEiJAEnVuRDrBeeUzVoMMgjBDc+XPwYJr5Vq1bj8YLzJHoxj1t++umny9hmvkDNS1ReACePoHmZmZ98meKlVLlfv35P4KVa0I3xtmkljk2ZMqXlK6+8cj9+54uVwTQdbrxQ3WxnvJRlbGH4k/MYQnsJCDkP8rjYi2MqRjWuXLnycjMmkRzdGk8sHkUyqrGxL4oXtmqHcwKhaFBNqbQxC2JH57wBCXqlBJwEGTgEhToTsRKKuXU8Re0NNDfrEH9juhcI4CVV4auvvmI+lAKp/PI0R3Ch/OR48GVKm5xRo0ad79b40HCYNhmwu+kGW6gSJhJ2JC9Rt9oWi3ICjUlW7SAnuuoyGu13333XxUqa6GrTGfDtlFNOmY62uWZ7xTUDhuTNaNjvamNVWDACWR5RhbImhHKtaRQ9NY23ZrCGJuvfJeAkwMhyIaWhICYrs9D6dtv2b6hdsB6W4/AK4W5xWaj3O7l++vTpLbjLNe6NqSzkOOFlv8a2884LAedC2Eq5khGYRyDIi1MFwd9Ot6cEsGuQNE4nj5Y/Gx754HfZqRHxQmCgVhV2OJNhq3bArWNDthnjXhXG0o1CnYu63hsCkcY5yqpV1vqe8sINGUnA8Wb+ulrq8uXLq8FQsCl33G5ocCzh6BgW0kkIJrXb1caiMGoJsGNsTrd23yTDDlIvztAomx0bops2Ynya0O7O/OrZs2c3hcFpBTfmkVttSrRy+Bza0iC43vzGjRv/Sfd0E8gz0pchBRwcdRaCAfvprjdWBYpAHBOQgBPHg2OaBuGmOYPiUT0e6WLHMhk9kwHmmOzNZKZ1EwO8TPIiuFhFGmLaX6SBzpHdrDeZyjIGovSag7uya3Y43MnL5ib8mcI5TIEBRv8ZsMcpFn5Jmd/JAIOIizTbsqE4kW8uEoGHDyK0qi0RkqCQF21WmSIQjwRSOg4Oje+4O0bAuTw4BsrphUGWKRMq5/0lS5bcQBW004lggt/dfffdZ7GNkWYaNvWiXJNcc57TtoRyHc99GZXYisgrV8lQ4Nmu5cuU444gielhFvGv2+ji7KYnnlvtSpRyjGaNc9sr+wZm/37zzTcnDR06tBPqiDiitBHKkHizNo6NG4D176HypjaWAp2JPB6o70552NdZ/pv3mZ+M/cTM2nCZ38IjVRNuItT26noRIIGUFHBorAvbhgsgOHREnJYazNZKAcfBlLC73QV6cZ/0O+tB5j3H4fq5mzYvQ4YM+bldu3ajChUqtBN1ZsNDnKkrHxdRxChhJNKW5ojHeHU4aGuml6DcIzznZ9yNSMpxeq/9eMoNDZTTehP9OnKjFgwaN5/tlRsfCp46LoycpMXQM+Hdimq8ESEDKkY6XnzmqP2hFhhRxFs5EXBMMEgG6USYh0633XZbOzgOVIRGkcfO7LfPxsMu1IQr4FiaKibcZoymo9gIbkT4ij/Gjh07HAL+RNSlAIWRT9mULMHJSz2pwCAeRBMINo/j4TkHD2s6j32M6tcLuwR7QkzaP0DAufyiiy76Hmf4z6DuRcGEHHo/MI6FOZ6KdLHj8RTz3rRu3XqcF8dTwSaLf/sl8AQjpr/HIwGjdfCqbdWrV18Il/F5ePYrmsS6kdTFtQ3CQg4IOG1w5DmIa0Bm5dGpgQEhEWzywptvvvkeRHNuztxkwTR/Tp7lQOuXffPGMmjfxHbCC/O6rl27DsaG9BUcqW+LpP+6NzUJpJSAAwHjlJ49ew6iTQtjjZiYMubBjVR4CDSF7F5ELB/HDQU+//zz63A0VmzJkiU9IbgszmzqUT370EMPnY3FJd2N+DdcPOgejszFS2rVqjU/Nad8wvXaMy1BwpGIrwZ7Oi6FCxfe2bdv30ljxoxpj+fWlXWaaxE8qRrSDgsoZxstjR0rBRv8/zg3Yo888khfaJAqcO3h8bilUcx0FCIRcFi2fTNIAZJJXwcMGPAwIqAXhVD2SFZCWXxNDbUmXgi48uDES2eyagfifpSCcNMbGhyfcMOPMXp18mCG00dTrv/xEhaMbMgafD5UsZvw8N5rskj718EHm4kpsTDxjDqcJpy4x9gOUB2M2DdTmdQvogJ1swiIgKcEmjVrNhmCznYYBpdwQ7vMjRxd26dOndqSAg6XQAoz9k5Qq8vkq3369OmFNbMC10pzxGXWy0g6HeiI3axN/uuwpbXO9f7779/OcBYQgF6m4BMLzXMkfY7hvZG9NGLYcLeqThkvquHDh188YsSIjkaw4YJh3JfdeHCdDojZBbFuhnwfP358O95rD/tu7aJ8AcWg5akRTDXspG7WyzoZBp7Zwxlnw8l9uibmBFI+3HrMRyBGDahTp85cJOBcwmNlN9YolgFtcF5Esm4DTXJebnb8003w9x9//PHNiJxehwKGlc8q6mEezDrJ+qnBQlqRngiXUVXCTYwmY4JWmxICDsPdQ8DpxPgsRljw3zV4ocXJSuvCnRF2ZgUZyA2eCTzfPvEiMw8xArKdBTuhgtZDfsJd1N52p+3mdagnDZFSV8MFdUYU5qvPO4L1+Lc3sx1bFNqUMFWYXbMlkEvIiYOR85vHngdSg2Z3G6Ia/0nPIrMxixQD16S5c+c2wNFTGcsT7KR3ADyt6iKIYTuuOcY+0V6nG89yZmX412P+z3bA2Lki7CbbR9p/3Z9aBFJCwMHDXBYPdT0+KJEe9YQ6PczOy74Ds59lM9ovBJ0iLJc2NyZfDLM9Wx4P2Ri3JNKP6TeEm5kMBx9peU7vdyqAOS1P14lAnBDweUd62RbYvRykthVa1120naMmJ5KPOR5atWpVJQSQPIVlQcjxpYQw6w6DiuJoqqyxiYn2emn6528+wP4j+expkfRf96YegZQQcChAQItTJJ4i6nKxovEejOcKoW2FrUWGwTV8Wg8aAuKIqk4wwz6nU5b1MQYPXdS9Sq7ptC26TgREwBkB5qVC4L+Vzq52dhVi2mRw80SNtrmD6w6PxiHclGFqkFgJNoF6QMGMGiV4U5VQwlBnY6yr/iGQEgKOFUfEZ6gb6S7IrYljdigMNDh//vz6LJdn4qZ8xL5pi5D65cwZeKT1sj6Gf0csnr8iLUv3R5WAp1qCqPZElYVMgM9sw4YNZ+Mlz8iZId/vfwPLYLwZaENacu2xgnFSgDjGCORwCT/VLvhEXKGLBZjApy4WmexFycg42UfY3j+zE4iXPnOxwa6kCANpIdhgOgUcfrmDQvbwMxC3wpWgbOw3j7noGl6lSpWlUey/Xs5RhK2qko8AbPUO85gK2teDPKaJ5GM2VVx3Fi1aVNOKanzieAqGxTWQ1Lc16jiR1DeS+ry4174J9KJ8lZlcBCLfEiQYj3izCeFigyR4bekxRZTcUeGMvDLiVTR2y3uK8SVgf3SIuacUSyLBJqyam/IE4C4+pWzZsmsiPa42ax9tERGCohC8qVpTW2O0OPDoPAuBBcvFwlYx5QdZADwhkHICjicUIyiU3lRITFkBcXE6UnXMohiQECkafAG2Iv1wUaMQxZg7jF4caXm6XwREwEcgatpJal1xtDyHOeTcYG9pcrLDDqctbQBZJvJMFWVsLhzh53bjKMyNdqoMEYiUgAScSAlGeL/lMplt5MiRF9F1k+fM0OicztDobmmbsGgdq1mz5mLG1IiykZ4rC3KEiBP+dqnlE34II+oAnQIQnPMPPMcRPU92j05oaXLgSKo6j6XYONjktKBnFX5PY+MToR0iarhuFoEYE5CAE+MBYPXU1OCIqj4M/Joy4vL06dMZvTi7Gxocy93TF72YyTVNEEGvu228wbyuJxXKB0s9p/E30FE14GzVqtUEHFOt53GzGx+uCziOKs2oxtz0jB49uiO8TYuZ4yo36lAZIhBrAimRqoEvWxMDItbA/es3uyoYGef79ddfO0CoOcwMvpG01/9eZC7f3bhx4z+xO4sskIZDeJbGIaovAIdNS8TLXOfolmYwEWEmapuhgV0AJ4GF2AD5PCsj/bAMOjFgM3Ua0tecyqCiFJ6YRiYe54cV+FKCfqQDn2L3p8SEQVqC/VDz7o3XCLpGIIGR33lff/31dQzyx3kYrteEMUZkuTjqSqtUqdLKpk2b/hGtua0jFXdIW+N4IjaSG6UyKq55DtwoT2VEhwCcA3ZikzIdY0dPy4gr5RygMTFCVDT+9ttvr0HcrUomcrE9hU3EFblUANsEe8VDxk7RpWJVTJITSAkBByHPt+J4ZhPH0j9MeKzG175L4r95HAXvqfJDhw69GAtYHrOI+bfXyf/ZJ9t5+zEeT5UqVWpDNPtqf4lm1eZotimR6rIzw1i6cy5hA+DGSzKReLrZVmtD4vqYZNZGbHSyU/vasmXLCRR03IjlZQk4OZYtW1YBuaf+wxg4xrjYrWMwN5ibzR/7jICHK6JsQ+hGF1RGDAmkxBEVzq7XQoMxFeka6mOhyM4HmAs8H+hYqmPZDr/6c2Exy2UXbsKdGyaoIcK9H2jRosVERjEOt6xw7oP7aW4TxycrxnrRBqZrqeQZvyiHmzY4eJHlo2bQybx3ck04cyOR7yET8sPzFJXjXrLCmuUTpqDBmYHAfyvnzJlT2A37PJYJwSEvc+GhvOwmJYxJRGw2hPEwXuB95PTTTx8DLU5kwYDioTNqQ9QIpISAw5c7Esh99vPPP1+EwHql7AKE1y9Y+3GR8U7gjpzGfEbIQvv24xhtHxYZCiHHmR+Gqlj+DOG4hx4WPt21sYGhQTGFO0RCnRmtGcUdFkLB56DGDEdja6lWzqruTPhHroPPusNulR/IqyWUsjP1iuH481u4cOGt1rxwZQiZwBE74XV8YQSbWzwNCbHSUK8PpfiIPIj8Kgq1rJOu5/PLoyIwPBBKByK9tkSJEpvOPPPMX2EMXDhEOxx7++3/5ngd5zOLtSIXBJxcFICxMcll/c4nXKO/voCjgVLdGCHYq3WU5cI+MQ3Cze9t27YdGynDKN/v5fMQ5a4kZnUpIeDwYcXDO7Fr167vDBgw4AE+zNwBUYMSaX4qo0I1ux0j0PD/Vlh0GvMdZ0RSHBNtLVOmzDq8+JchtsWS0qVLr0d8mo1YuDZS9Yyd2hF+rbLswkrYs4sRUBkkLOwCwriRNk8PPfRQ7+7du7/Il2gYL8owak2uWwwz8mMGeLd6d/31179z4YUXfh9MuLHPQbfqTpZyzJzGs7w2mn3CmnUE6RX63HjjjYNdeqZ8wg7LouYYtn8ZyItXCDFxisOYuTTic1WEbU415sXbtGlTKfw9nUIQXcmNwGO04W5yMMISy6ZWCevl8gcffPBpCPs73axHZSU/gZQQcKgtwcNy+M4773yZ+Vc+/fTTG/mgmiOqSHcf9l2MUWHz4cyfP//+atWqLUOQrlnNmzefTE0KVcwUarhYJeP0stxMmf48qkJVMrL0ok8QpjejXH71SUAC0IxuQbP5jcpn3759+ZgTD7Y61ZnNG27lrZDioR7XUTgw+DaKka6f/h0x9md0kODm7Mknn3wUmqsxUemwKkkqAikh4HDErBfvFqh3H6hdu/a8jz766L/cnezfv58qWd+OJItd7YnjnwCj71PxWjsa308+lMwfg4dyNONXlC9ffhW0Gj51No+NrB2TyfdynInu3JpVmRnhxTK+hWlTLNvgFt9QyonEINJvh845EuqxSihNDXhtJO0PVnk054JX/YhmH+w8A/UnlLbwfvv1pjzOObvm0FoPD2CTtgT1L8HaNQrHRfmRx6oO3MrPZHBSpJRpCK1PQZZn12YHG3/8/V/zmXWzLVwPGdrirLPOmtitW7f+PJryb7OD8nWJCKSljIBjxtpSc76yZMmSn5GLpQ0MjxsiL0sR2ruEMx/wMOK5P5qD7rew7ymJaMGLL7744m+prTFCDR9O26LkS6hp6gplYXLSPktb9a+z31guEG730QmHeLgm1H7bX1z+wnYsxi/U9scD80BtSJZ+uLVm+POw/T9LIdraiO1GO6byC83Ox0j30Or777+/kvZi9FblT/wtFNsTUyftgHLgKP8gNdzMmwfvz2nUOHJTmGxjGK/PSrK1K+UEHDOA1atXX4x/8+vTqjixSchs8TQvJqhz0+m1ZALq+ZcbrYc0WvUk28MQ6/5o3GI9AqrfX1OU1Zxk6IlOnTp9C8PkodS+mA1duBTNemnqtGwnIVfliJrHWrht133xSSBlBRz7cER6RGRbBPYGK5cPcaD6cFSWO9AUcWhM6O8ZYYo6sZOi54df+aHsssytTo5J7OUGvd5h/+xND1pmhI9aOFxYZWZjkFVzHHthhSuAR8jCye1ejwfbEO6YOGl/NK/JrB/RYOg/R/258mjoqN0N26nAjU3dQTcgmnXRaCut+iXchA83WZ6bsAlIwAkb3b9vtB8xZLY40LgZR1kFmEEcuWB8382bN5d87LHHikPISbde+CdsfrIQAEJZFN2e6I5fzBHgdbvNETQlrFuDtT+U8fNvQKCyMysvWDucdi6S9jqtI9h10W5DqPW5xToYh0j//q9+8Ygedi87+vXrt5WaGdoN0nuJnp7UStuFD1bO9c2pABRqY70qN9R26PrEJyABx8UxNA8m40j4DHMs42H+H1GKK82ePbtJr169WjOxJgUcCDYlYLRXwDKuY9wT3wIZYYC1aAgfwahlZZQd7F79XQTinYDXwmRM+m8JLcdwxH6YYStgC7MJNoXLmMcOccR+p3MGlrUt8Jw6GgubsJhAUaUJTUACjgfDx5g3LBaammIwZG6NmDDnTZ48uQ2SaFZmrAm6WjHvixFk7FFJIxRuWG087CLjoQ0ejKyKFAEfgWSd3/SiYnC/HPA2zQvvqFLYjDUYPnz4hcWKFdtap06deQi4NxobtaEQcOaAg46P9EDENQEJOC4Nj31HQ83MmDFjzrnjjjuuhpdBS3hpFcPuKI3RRxF4zyfY8P/8mOjGLjVDxYiACIhA2ASscBm++7le8UuBB8H/SsI1vOTvv//eGiE2burQocOwSZMmfdmsWbM/TEyvzOwLw26MbhSBCAlIwIkQIB9qFsEzbOZ0+eWXXzrecsstd0CwOQ0pCwpCm8MsuCcFw/KPdmya4IL2JsLe6HYREAER+IcAg5Xyw/WKGmdrQ5YLmuiqgwYNuvuHH364rHPnzl8hI/lgaHfmW38P6EQhpiIQCwIScCKkTu8Wnl0vXbq02iOPPHLPkCFDLoMGpzQ1NBRsQswZE2FrdLsIiIAIeEeAwo6JXowj+LLvvPNOt1GjRnV88803X4eTxPsFChTYK03OP3Khd6Ogkp0SkIDjlJTfdeZIioGtEOjqUuS5ehBBA5vw4aZgY3Y+3AXZ1b5ZVRco5Lm0OmEOkG4TARFwnYBZo2xrWq7ly5fXevTRR1/CkdUZSOPwJDZ1c7EO0u08VC8019sb4wIl5MR4ACTghDEASEzHyJrHYDCcv2/fvv8bOHBg9127dhWhtsaoclmshJMw4OoWERCBuCZg34hxjbPWvFzffvvt5YsXL64Bjc7DWAuHS8iJ62FMicZJwAljmPFAH0OyuWL3339/v88///xGPvA0HjbaGnuRZjGQsBMGaN0iAiIQMwJO1iy7RgeRjNPmzJnTqHv37m9//PHHvSDgfILG+zxK9RGBWBCQgBMG9Q0bNpTu2bPnazCyu5y7F9rb2BPNuZ1dN4wm6hYREAERiBoBIwxxo7dp06ZyCFzaH5vAkkhf82p6evr+qDVEFYmAjYAEnBCnw+rVqyvcddddA0eMGHGhMbYLsQhdLgIiIAJJSYCbO274eGT/4osvPsogpgh02t/EBkvKTqtTcUtAAk4IQ4PgV4W6dev28ujRoy80hsQh3K5LRUAERCCpCRhNDu0Rob3JGDBgwEMZGRm7cHw/SCkYknro47JzEnAcDsvBgwdzP/DAA30R1bMzNTcM0GeC9Tk5q3ZYjS4TAREQgaQgYGlyCvXp06d3iRIlNqFT3yRFx9SJhCHwTzhdfTIlgOSYOekSjsBWPRDB8xZjX2OEG95oXCaduoMLtwiIgAgkOwGukdwMIgpy8SeeeKLvtGnTWiR7n9W/+CIgASeL8aA7OMOQ//bbb+1ffvnl/0HtSvfw+BpBtUYEREAE4pCA8SqlkLNixYqqTz31VJ/169eXicOmqklJSkBv6ywGlu7gNCqGivUJ7EJK8CjKfJN0PqhbIiACIuAKAXuIDAo5SDzc9r333ruDWnFuHl2pRIWIQBYENMmygMOoxIMHD76beaVMAD/Z2+h5EgEREAHnBIxnFYSanB988MEtY8eObc/No/MSdKUIhEdAAk4W3MaPH9/uk08+6YqjqRzmMsW4CW+i6S4REIHUJQCtjc8pg3n63nrrrR6IkVM8dWmo59EiIAEnAGnsNHIgjkPG22+/fTcSypWgfGN2IdEaGNUjAiIgAolOwBzpmzWU6yg2jmcOHTr0UjpvJHr/1P74JiABJ8D4QH16dMyYMeeOGzfuTDyY2UyUYh1PxfdkVutEQATimwAFHYTcyPvZZ5/dBPvGSvHdWrUu0QlIwAkwgjAoLoqjqf/u3r27kNl5JPpAq/0iIAIiEGsCJm/fX3/91fjXX389L9btSfL6U15DJgEnwAyfPHlym6lTp7YwhsWyu0nyZUDdEwERiAoBasFpj7N///6833///VXIW1UyKhWrkpQkIAHHNuzwmsp24MCBPDgf7rx9+/YiEmxS8plQp0VABDwiQAGHxsbUjE+fPr3FxIkTz/CoKhUrAmkScGyTAA/d8WXLllWfNGlSGwg3Ka/e0/MhAiIgAm4SsEd9hwlAPqS+uYQOHW7WobJEwBCQgOM3F7CjOBPRNsvzeEpRi/WgiIAIiID7BLi2MmExTAFaLl++vJr7NahEEUiTBsc+Cfbs2ZMfnlPnHDp0KDdVqAw1ro8IiIAIiID7BLjGrl27tvyMGTOau1+6ShQBCTgnzYGlS5fWnD9/fl38MpuEGz0eIiACIuANARMfBy7juZHCoc2+ffvyeVOTSk1lAjqiso3+vHnzGqxZs6YC1afKDJ7Kj4X6LgIi4DUBE1dszpw5DRHZuITX9an81CMgAccac0Yv/vvvvxvRi0r2xan3IKjHIiAC0SfAzSQC/lVcuHBhnejXrhqTnYAEHGuE9+7dm3/BggX1sauQA1Wyz3r1TwREIOYETPobeFEVovdqzBukBiQdAQk41pAi7k1RGLyVk/Ym6ea4OiQCIhCnBKjBQfyx7CtWrKiKAIA547SZalaCEpCAYw0chJsKSKxZ0pY4PEGHVM0WAREQgcQhQFucVatWVUF0YxkaJ86wJURLJeBYw7Rhw4ZycBPPkAYnIeatGikCIpBEBDZv3lwSnlT5k6hL6kocEJCAYw3Cjh07isBlMafcw+NgVqoJIiACKUOAx1TwoiouDU7KDHnUOioBx0K9c+fOwjwLlgYnanNPFYmACIhAGqPGY3OZF6kbCgqHqwSOu1paAhYmAccaND5cOAvGZkJIEnAeq8kiIAIJTADR4/NCg5OewF3wb3rKCxfxMJZ6m2MUcCyVDTuIPPEwIGqDCIiACKQaAcQhy8UUOanWb/XXWwIScMCXsW8g5Oh4ytu5ptJFQAREIFMCXIeFRwTcJCABx02aKksEREAERCAcAhJuwqGme7IkIAFHE0QEREAEREAERCDpCEjASbohVYdEQAREQAREQAQk4GgOiIAIiIAIiID7BORJ5T7TkEqUgHMyLk3IkKaPLhYBERABERCB+CQgASc+x0WtEgEREAEREAERiICABJwI4OlWERABERABERCB+CQgAeefcdHRVHzOT7VKBERABERABMIikDOsu5L3priLxZDsubEQ3Ct5Z5N6JgIiIAIiEDMCEnBigJ4vdQouTl7uiSLgmP7wJzOyJ0q7YzD8qjJFCDh5vuMNRaDnls+zcvTF20ipPU4ISMBxQsmFa8xix5+HDx/+51zMgfYiEQSFXLly+RZA9scuvJm2J0IfXBhiFZHCBJBL6YRgf/ToUd9zkIhCgdmomPazDxRwmPE7EfuTwlNSXQcBCThRmAZc8PjNly/f/tKlS68vXrz45vz58+91UjUWlWNOrgvjGvvZUFZHc5meITF3DJKU5t28eXPJ9evXl927d286c3rlzq2ceWGMh25JQAIUBDDn+YwcLVq06I4KFSqsxs+tfA48fHadkgr1yP2kZx19y75t27Ziq1evLr9r166CTIiZI0cOaWed0td1MScgAcfjIaBgkydPnn1t27Yd16lTp6+aNGkytWTJkhvxuwPYLQU1QHFyjcddyLJ4aKNy7dixo8iCBQvqDR8+/KKRI0eev2HDhrJot29uadcXy9FR3W4TMBpKzmtqYvHCP9SwYcO/8Gx/3apVqwnly5dfVahQoR1xINyE1XX/hJe7d+8uuHLlyiq//vrreT/++GPnRYsW1YLwlpuaHvuzbbiEVek/NwVdCyMoW7emKAEJOB4OPBfAqlWrLu7Ro8cLnTt3/rJgwYK7PawuVkXvR8W78F2JHd7Iq666qsVLL730MBbEjlgEc1DA40KoY6pYDY/qdZOAmceHDh1Ky8jI2HbTTTcNvvnmmwdSc+NmPXFU1j60ZQO+k5cuXfrJ66+/fu9nn33WFWtbuhFq+IxTa8ujLCfH7nHUNzUlyQlIwPFggLkIcgFs0KDBzBdeeKE7dna/33DDDR7UFF9FUtt02mmnTVq7du3tffv2ffzTTz+9CTtc3xxzYYcXX51Va1KWADcu0MKue/TRR5+49tprP4AN2hG85LNhrie1FqJatWpLcAx9P4S5lS+++OJj+/btK0DbHH5pg6RNTMo+EnHbcQk4HgwNH/aKFSsu792790MUbrCzyQYtRlIvfsSIBd5nL1SuXLm1mzZt8i2AP/zww1U8y5eQ48FEU5FRJ0AtBezndlG4wablHbNxSXbhxoBG3/dBwOsPQafAgAEDHoJgB/kmp0+4ceoZGvVBU4UpS0CB/lwceqOixQN/+JZbbhnYrl27X7AA0Ngw6YUbf4zY4W6+9957n6tdu/Zs4zXmImoVJQJRJ2BpIQ9Da/Nhly5dPo16A+KkQmqsunXrNqBly5YTqKnmR9qbOBkcNeMkAhJwXJwQtDXheXTjxo2nX3nllR9bgk3KCTcGKYSbebDJ+RgG1Qe1CLo40VRU1AlQuOHLvHLlyku6du36dnp6+n5qZqPekDipEJ5i2+66666XqNExbvGyv4mTwVEzThCQgOPyZID25kjHjh1/KlWq1EYugKmiug6EkQLeOeec83P16tUXKvifyxNNxUWVgBXn6Xj79u1H1apVaz4rT0XNrB16mzZtxjZq1GhWKHG9ojposa8sZTe3sUf/Twsk4Lg4ErS9KVy48NbTTz/9Vy2A/4CtVKnScrjGTze7PBdxqygRiBoBCujwgtxLV3Ae0aSy9sZAhxfZnjPOOONXaG6Oyf4malNRFYVAQAJOCLCyutQ84Ixxw1gYLhWb8MXgeOpQ/fr1Z0OTdZQvCX1EIBEJUEAvUaLEppo1a0p7YxtAaHBm8NmWl2Qizurkb7MEHJfG2KQpoAcRtDjbXSo2KYqhWynP6pOiM+pEShKgcF6mTJkNFHJSEkAmncbx8yJsYg4rX5VmRTwSkIDj8qjgRb4HKux/kk3p4yOAIGCHpMHRZEhkAtTg4Lk+RBu7RO6H223nepc3b96DOqJym6zKc4OABBw3KP67DBmX2ZgwAKD19Ya2ShUBEYgZgXhPJxMzMKo45gQk4MR8CJK/AdTemEXQHOUlf6/VQxFIfgJW7ipt6JJ/qBOyhxJwXB42/2R1LhefsMVJg5OwQ6eGi4AIiEBCEpCA4+KwWYZ2R1M59k0gnMysnKjZlV2cHipKBJKSADd1CvKXlEOb8J2SgOPSEFK4YRwc/MzOxHsuFZsUxYBLTgQDy5UUnVEnUpaAbE1SdujV8QQlIAHHpYFjpFN4WaRt37692MGDB/O6VGxSFIOkm+lgkicpOqNOpCyBAwcO5MPmJUfKAgjQcTLh5kUanLicFSlvGyUB5+R5GdGEYFbdjRs3ltmxY0eRuJzuMWrUihUrqmIhzK1FMEYDoGojJoBj57QNGzaUWbt2bQUWJi3tP0gXLVpUG5nF07nB00cE4o2AZqWLI8KHfP369WVXrVpV2cViE7ooaG/yzZgxozmO7vCO8Hbz6y9AyWMroadOwMbHSkimdhabl9ILFiyox4Ype/Y/wzNt2rTToMHJLh7J96wlQ49yJkMn4qEPFG74xRFVoZEjR16ANk2C7Ul2aHVSOj/B8uXLq8+ePbsxhRuvX04m2JhZbMMNPqbFOh6eqMBtsJJe+v7o9Xyyt4BzApqKPOPGjTt7//7930KDw4B/KR30b8uWLcUvuOCC87HG+WwOla4hfp+bVG2ZBByXRp5GxiZj9tChQzuvXLlyMB78lS4Vn3DFYFeXk55Tffr0uRJHVFWiITRwgTUvQI4Fo8/iwxxYqD4bd932I8hMDcGDtDUrA/KIjjhtg+xWOW7Om2CG88H+nllbMuur+b293OPWc4Zhzp4NEbLd7F/Qsiik//rrr+fMmTOnUdOmTacGvSFJL6DGBhqtYyNGjLgAR1TVXRqHeJzzkY5gMvYpUiZRvV8Cjou4+YKlKnvp0qW13n333Tthd/I4Q7vj63vTpsqH9gl4GRz5448/Wn3zzTdX4qWUi/ZJXu/wjMaGgg1egIeaNWs28+yzzx5Rq1ateQUKFNjNFBr06AoxVpHbL+5kmQbhcnHSf/8XA+vyRcPevHlzyalTp7YaNWpUR2wiKiJNQFog7aAX2h0+2ziCLv/aa6/dN3DgwBvRpr1OOpNs11C4AYcyXbp0uQvPWj5z9ByNTUyysVR/vCUgAcdFvuYBp8bg7bffvrNx48bTO3fu/DVeqjlSRchh3yFcHF+9enXFu+66qzeEvarc4Xnxwgk0dNhdplWqVGlZjx49+oH9l0WKFFHiUxfneJwU9RGEm8oUND788MP/4vk68ZL1qn18tk1CyR9//PFSZtHGy/0FvNxT7ggaHpG577///t6zZs1qyo2LPiIQrwQ0Oz0YGR6TwLi2QK9evV78+eefD2AR+InVYEHMnqwLIgUb9pHCDV8+WABfGzt27NnYYfuCgHkt4PAFhIU3jdmNX3311VvbtGkz7sYbb8xmmNvb58GQq8goETACNITYFRBsepYtW3ZN3759n8Q4+0IzeKVF8MuWnbN///6PIov2wUOHDr0OAT5lkuvC/ijvM8880/vTTz+9kc+2EfyiNPyqRgRCIiABJyRczi6mgEOtxZo1ayrefvvtH2EBfunaa699H8LNGmclJN5VFGx27dqV8dNPP7Xv2rXrw3/++Wczu+bG/8XjtsBDzU2hQoV2QKh8jMKNEWiMQMn2JR5VtdifgBlHS3A9ihfuKzBkr/HJJ5/cRPnGK089fwN21FvgiSeeeH7+/Pl1YYfyYtWqVZcks5aWvP/+++9G//3vf3th03Ypj+v4oeCnjwjEKwEJOB6MjHl58wWPl37hp/D54YcfLnvxxRe/xst3LHafy7H7O2BVHa8vXn8bi38Z6NKWhYG+4DlWlOrqm2+++bIxY8a0w+/S2XevdtP2ITN2PYwiDXubX9q3bz+cizF/n6zaMg+mbMIVybG1jn4P/PXXX69DW9geMWoqRasjljF77vfff/9mzPlzLrrooiGwCxpZu3bteRkZGbtCtPOKpNnhrh+Z2lAxGruVfiHb7t27C0KIq4cj3wuHDRt2EVzlS+XPn99zjWwkQHSvCBgCEnA8mAt8sVsePD4DSH7nzZvXCDE0GqSnp+8tXLjwNhi97rG8eoItUMG8TELpgRPD0EyvMYu2ffFGP3PC8LPE1q1bi1BfzZ0dhLeoLoBkDa77L7zwwu/xctmTzEeBoQx2Clx7nGON79wmTZpMh7deJc69aHyM8J4vXz5qaivB6LjHBx98cBtsvrZRwIGAfyiEqMfB1oBgXXJyf2bPdaa/Z/sh4GQwcCk2LXmgocqO5+yEt2iwRunvIhBrAhJwPBgBqm39PYa444Ogkx0LRQYWxAy+lN0+pvGgK/8q0nK3PvF7E8GUgo09mmk0tDemEeRYqlSpTdWqVVvE3/m5g0cDi+qIAQHGmOJRJG1g+vXrN2vIkCGdMBdyRHPusdsUqjj30Za8iHZcFpqksvZ4PTFA41qV3JxRG2tcwc2RlJ9Nkmv1JVlBTgTPJOtyfHVHAo4H48EFlgucPdCc0erw9/Q88MpWwIPunFSkEXCMcaFdSIv2i4UNI08eT3HHTKNPr/uv8uOLgLHJKV68+GbrSNLbcNm27pv5bozoTT46CjwmLlZ80QqvNdyMmb76/wyvRN0VBQISrgBZAo5HM82+EBghwC4AxEIYcKurdq+oWPfDj6nvoZZBsVsjrXKcELALOv6bGif365qkJsA1yYlpQFJDiFXnlIsqVuRVrwiIgGsELLswvUhcI6qCRCDxCUiDE4UxjLWWIwpdVBUiEFMC9PyJaQMCVK7nPt5GJOrtofZGGpyoY///CiXgnAxfO8AYTkZVLQIiIALJQCBYmAD7UaY58jc/jQcuOdhtHvl/Y9tp/1tmzipytpANTjI8S+qDCKQ8ASZ25YJuXgjR9lCMdn0pP+BxDsAm4Jxk7GsSMlOI4Zf/h1H6McQW2g1HiYMMHwKP1EP27rEsRGnPg2z2BfAzL4JM5sNP2NTn8OU+NN6rxrON/7fsEFN+wy4NTpw/KGqeCIiACIhAwhLwHZ1aXnXHKAgjltABpBjZWKVKlSVILbOwcuXKyytUqLCqRIkSGxlHid6gFGoosPMnj19NQFUmm0W8p6qrVq2qtGzZspr4Vt+2bVtRCD0MAOULkWAJ2ywg5cNMS8BJ2OdGDRcBERABEYhXAhBMGLIgG9PIQDOzGwLN0lNPPXVKq1atxtesWXNB+fLlVxctWnRrqF6fJh/bli1bilPYQRDZBpMmTWo7bdq0lkxyjPxoeRnlm0FY45VNtNqV8gCiBVr1eE4g5dWxnhNWBSIgAo4JQHA5AgFm2xlnnPHL+eef/xOEmz/KlSu3BtGvTZqeE2VRaAlmt8OLqdWxxX7agl/xO3XPnj1fUNiZOHHi6aNHj+4wZcqU00w+PscNTsILJeAk4aCqSyIgAiIgArEjwMCjnTt3/urWW299o0WLFpMKFiy4m62h0MH0IpEYAPsLLpZgtL9OnTpz8Z1zxRVXfAaNzuk4tkqnbVrsKMS+Zgk4sR8DtUAEREAERCCJCFhamk9Ml4xQQu1LZhnYnSQHzkorY0IlINfhDuTl+8GpViiJsP+rKxJwknl01TcREAERSAwCSZ1awBwrGfuZQEPCv8F+JjfsZ3Iy0SltaHDfUaT2OQJvqcMwPj7kb68TSODhvSiDBspJzdTJtJaA44SSrhEBERABERCBCAj4Czf79u3Lt27dunLLly+vvnLlyiq9e/euhGSt5egODq+pvPScoss4vK72FipUaPtTTz21Ht5WK2msXKlSpWVlypRZB4GH+fd8goyVwNlni2iOwJxohSLoUtzfKgHnnyGSgWrcT1U1UAQyJ2BP1aCNa+LNFCcGtonXq5NbTO0L7GLyzpkzp+GECRPa3XzzzS0XLFhQF27exXft2lUQWhfa5vBjXL1PFGCOtSDwHIWws6NkyZIb6tWr9/fbb789oXnz5pNq1649D8KML35OpDY+ic7Z3n4JOKBBKRfS834ujAySlNkZaTINfLL1JRKjvWRjkYr94fhzh8zgZ/okFgGuuxg3HsOcFOAusXqRdWvXrl1bdty4cWfD6PjiqVOntmI8G+PGbQXmS4Nh8omgfSaqsUn3YbLT49ocO3bsKLZ169Zi8+fPr/fjjz92Ll269LqWLVtO/Omnn76BC/oEsNxqjq4o7KSyFkcCjjUvGY8AZ5yYD0d9wZL0SRwCHC/sfnIh3kSuxGm1WuomAUZ6NTYHgXbAbtalstwnkDdv3n0wjt3ufsmxLRHamSJDhgy5/Prrr7/h77//boR5mh82NT5BxkQgtrfQf3NttJGc00Z450/zb/w995o1ayp/8803FUeMGHF+06ZNp3/11Vfv7969exg0PbuoFWJMHNR5NLYkYlO7BByLO1V+mDRHYeTlC4GtT2IQ4ALAhx+7msLr168vh1bPSvVdS2KMnLutXLRoUW0aZ/LloSMqd9l6XRrGLa148eKb8ULe6XVd0Sofm62cY8aMaX/DDTfcS5dtvFfycG5SS2M+bsxTrn1M14Cf2RELp8ivv/56DmLgtDz77LNHjR079nX8fpw0ONEa9Tiup2rVqosRJnszjbziuJlqmh8Bk9tl586dBRHk6gwsLCPxUKfkbiVVJwd2sOW7dOnSihsTaW8SchYcR8qCxYgVkxQCDgyHyz7xxBP3fP7559dv3769pBFCODJuCDX+I2yOszj/qRWCMFVg6NChnf/4448Wt99+++tow5t4t+1IyJkRYaN9eTL0SUtDPpBl/DKstheTUIy9I8AFhFobqoJnzZrVlMZ8/L93NarkeCLw7bffXr1kyZIa3B3r2Y2nkcm8LWacLPubow0bNpwFb6F9idH6zFs5ffr0Znfeeee7AwcOvB+brpLRPg0wyWap1UEqh3J9+vTpfc899wxaunRptURnG0779RKwqDHJGQ20mNlVNjjhTKXY3GN/oOFuWaV///6PcgdFtaxClcdmTLyslTYFduF15MiR5+Nl0gNjnY/1mvngZRtUdvgE7DYl1sYkrVixYltPOeWU6aHmZAq/Fe7diQ3xiXfozz//fCGEm3dwNNTBrk2M1fvEOrrK/d13312Fo7LPJ0+e3Io9p00OvilhaCoBx5rrNMLCueWIUqVKrWM8AX0SiwAXEUQPTcML74K77777Xe6kEnHBTCzq0W8tntNjFF7pbvvxxx/fiN3pwE2bNvmOlaW9if54hFsjx4rHy1xrYRg7rUGDBrMScUMCIcKXCuHLL7+8BuvOYLh9N7QECx+aWAjcds8rcqZmE5rtZnfdddfbo0aN6mAZHKfEuz8lpDinDyECLKVjkr4Pi/Qu9knq9H5dF3sCXDT5UMNofG3Hjh1/QqK7McjcO5+5YeIw1ka8P3+xjoR6Eh8s3McQL6TQjBkzmg0bNqwTdqRtKehwATeLuoSc2D+DTlrAcaJxMTYle/r169f9P//5z/sQdujmH+s556T5J66hUAbh5tr777//DXguFYQ32AlBO9Zz0dRvPLbwrKRVrFhx2YABA+5s167daIZWSHYD5HhfYEOabG5c/Msvv3RArIKP4N5XglbvsVIvutGXVC6DO0MuoEw2lz9/fvvZvpnz9rkfzUU1kZ65aHIJOl0p4PB4Ct4iPI7KzpcJP8bQXM9qUIRxdQFfuOecc86owYMH/wcbkk1x1TiHjYHGuCMMeT9EXJoSxgbMuH/HWsCxd8HEeEP05DQYdC965513/tOsWbOpye5xKjdx2yygax9eimMvvvji7z/66KNb7btCLZ4On/gYX2YWFRMrAotNdsSeKKDxi/HAuFQ9x7FAgQI+oYYCLD98ocTTy8SlriZdMXYPNzpzwPZmMzaTryeqcIPjqDrQPL3AzTBsN08I2vE4cIY9j/FhkF+zV69e/RBW40qskxsSUXPmlLEEHBspHEtxxTyybNmyF/7666+GUIWfxqMqe3RjvSidTq3YXOc/PmZ3H5vWqFa3CZijDSPYmPL1XLpN2t3yjEGxGSdoxw9CuHnz3HPP/TkRtQiIRFwCqRZehpBT3wg3JBbvgraxVRw/fvzpiN7fB9rQu/C7fTQ6xpjElcbWjRmYEoZGoYJCTJylTz/99INIaLbEuI0rvkaoFHW9CIiACPxDwGw0KABgTT1+0UUXDbnjjjte4RFyotmB0O7mzTff7D569OhzKdyEK9iY+DV2ocgYJRsj7HDLzmzeWQk50+CST8Po/8De9Go6YyTrBiGR7AGivlYgz8elDzzwwIDVq1dXMuf9yToRog5XFYqACKQEAfOytrQ4R84777wRiM/Ss1q1aksT8XgEAUXbXH311d9D+1HcljIhrLE0nmRkw820lcbBZ2vG31EAROC+7Py90VoaG59w3kX2I3zWV7Zs2eVff/31hXXr1p0XVgfi/CYdUWUxQLTFgZS+F+eVzyMD7Cn2MNtxPq5qngiIgAjEDQHLyPUQBINPsZ72Kleu3FpqQhIplAPbC0/b/LC7eQzRgYsb7yS71iUU4HYXcmhUdtaoUWNRo0aNZsLrcwETaEI7BPPBg3kQ36sa7GZqMZcV/l0VnoQZ1MCEcxxmtyul0LRixYoqb7311t0HDhzoiU38wVDanwjXSoPjYJSQ56bmiy+++BiytXbCBM/gxKZtjlExhiNJO6hWl4iACIhAQhEw2gVzFGJpb45DoFnZrVu3lyEcvIeUDLsTqlO2xkLbcRVsbz5CP3Nx3XcSqZgMAjmsQHhJy8jI2NWhQ4ehSDXyCbyapiDpc6YJR5FGqDRsZ9p99tlnN/z++++nw24mr9HsmCba6wrG2NhFQbDZieOqi9u2bTs+2D2J9ncJOA5HDOrI/IhUefGnn356E3N8QOItYOKqWKpEhyXpMhEQARFIPgJGuOHRB7/YBB5n4FTGo+rates7TMeQyFmt4WKd74orrhiGSMXt6I3ETzibWwohOHZKQ/TmaQhU+TwMrYdDI7Of5VFLZIvXdcLo1x4fiAbOSE/S5Y033rgX5hNVwPSk97hTIcdogPAuS7vyyis/HzRo0A3QGh1KppkpASfE0aR6cOrUqS0REfKC2bNnN2VaAGh1CkAaz4vJmYNnpg6KjJa1eiTjy3v92xnod6a7gery/12w/ztA969L7G0M1N5AZbrJ382ywul/st8TbA7b/57VtW6Nk385WZXrpE5eE6yPTuZwZmU4aUO4c+hEnXwp84sX9V6kvdlapUqVpS1btpxw5plnjkaU4tn0UE1Ebyk7GCSwvPj666//HP1MN8Kc+ekUIG1u+DnrrLOG4aTuUQh9synUkA0YOQqhz3QljOgNLU7bxx577MWZM2c2w72+sXAq3Jj2mlMIaJK2QTt1fvPmzf9w2pdEuE42OCGOkqVeHYXbRlGShtqwzI4dO4owiiUmac44E3B8mwyHXQy0EDq9N1gVbpUTrB79XQROrN02FG7PPzeEBjfKiIfRPsEWL9lDPHIpXrz4ZhxJrTZaCTbSMiZ2svmLhz6d1AYKHxAqct6ID7Qd6cZzyggU5uKstDn8m4myDo3NjzSyhhC4HJqcXHhnHCYipx2ncMNr27RpMwGhTO5kFGWkYmhOTY4RoIKVZQQh02bYFBWFU01n9HVaonm1ZdVXtx/8YFyT5u+JvhtJmoFQR0RABOKOALUSFArgmMGXd8J/Fi5cWBuCyXhsZEvYBZnM/u3fYV7HyM1MKgoX8670WnLrHUJNDpJ8fgCD4arhOMKY2FK1atWaixQoZ5YoUWJLwg+Y1QHFwQlzJJNJyg0TgW4TAREQgYAE6B2VLMINOwhv2g7Q2Ps8p4z3k7/Gxhz3+AMxgWKh/d8FQ+sBxiXbrXcINTkImvga8+051eDY28j20Vh58eLFtXHc1TSZprQEnGQaTfVFBERABETAVQLUtIwbN649CoVME/qhh8mLh/g/w2hw7WrjrMIuu+yyL2nzROPuUD/muAoaphwU5EK9P56vlw1OjEaHKtwYVR1WtdyRJVrcirA6qptEwAMCoTzv8R4bxnj6uKWB8AC3q0UiZ1PZuXPn1qXtTTixZ3hPoUKFtl166aVfeuUiX6ZMmfXvvvvuV5MnT26D+vKEI4jR5f3PP/88jR7DyPe211WIMSpMAo5H4Jm4E5PsmDEIC6C2TDgjw3hfeD0aShUrAhETSKZnx+pLwq1f4Q7iypUrqyChZrFQPaZMfXQJx7HUnFNPPXVquG1wch80OL9Xrlx5GYIC1mGcNvvHiWBGAY5R+zdu3Fga9y51Ume8XyMBx4MRgnFdDu5yJkyYcNZrr73WEELOP2mPbR9brAMPWhBRkWbhOqFhovs7PCM2QQ36uVNXxohaoJtFIMkIIIFvVYSWOB9rA988ePyPR8s8wIkgEkibHPA+rgXUDpx99tkj6tWrNyfJhilgdxhJGFqNAnbvKaf9pmBBzUjTpk3/QEygDU7vC+c65E5c0bhx4xkITFsnnPt5z9atW4uvWbOmggSccAmmwH10Fccn+5AhQy5/++23b0NQqCM293ETr8AeU8Z/gYnEZdvJghZoFOz32eNbZIc2KgfiI0zs1KnT17jRsTtjCgy1uigCjghAC1AZ2Zufgp1DQa4FloAT8LkPFOjNUSXOQ0I4LO7fl7Hd+B7Fy3ot/poSAg40IjW5noebcJnG1kjgvMRrLV7+/Pn3PfXUUyvQTgrQIdsLsX8IZpgLWpyKHPlkMEmQBifsR93ZjZZlfU5/FaETlaGzGry9yngG8KHhztPb2lS6CCQvATxLXG8ZDJTfTDsaz2uDtR4cTeSIxKHOsLVr11ZgJGFKDKGODb2aoPk5jNxS60OtN5zrkTxzDdrKTWjI73bj7QUNjk/ASYZPyBCSodNR7IMvDb1xLbTXG44RWBTbfaIqPtCB2h+LtqhOEUhgAr73oz0nEfsSaB1IgLUhoRwkIpkz9KBCgtDCLCMcF2zeB4HjiCV0RNIUR/cy0CLX61AjGpu5yHt5TMX/e61xctShCC+SgBMhwCC3J9NCwC1nMvXH25FX6SLwbwIn1DZGExCqRiDWUG0a6WjZEMW0yzzqYQZxrn3hCA1GcLA04J73BQbNeVBJWJp20z9G5fe8oVGqICUmaZRY/qsa+44tVm2ItN5wz50jrVf3i0AyEbCCw2mDkGCDStsb2CCe7JIUQh847sxTyHQ+Vs4pz+YAy0fKhSJGqAqhmb5LjbANISl3qPfG6/UScLwbmUyPp7yr0puSE22X6Q0FlSoCERPQehsxwsQqwBJwcq1ataoyj3y8PH6kMEaXdnrxhlNPMm5m9cB58Lwkw9llACw+GwIPcKlIEUgFAty5e7Z7jzJArQMOgVNogEYk27x58xowgJ6X7wYmfp4zZ07jKIYgcEghdpdJwIkde9UsAiIgAiKQ5ASY52n69OmnMdeTl12FEFUfEZfrsT59/iEgAUczQQREQASiQyBZNDjRoZUktTCqMFzNy//yyy8d6ZXlRbegJco1fPjwi3bu3Fk4nOMpL9oUD2V6AjseOhYnbdCCFicDoWaIgAiIQJgEIlrHKXDAPibnjz/+eDm0OLXCbEOWt0FD1BwCzgUQpkKO1eNFe+KlTAk43o1ERA+Fd81SySIgAiIgAtEkwGMjHiG98847d8INu0AoyVeDtRN5soq8/vrr90NLVMnEXQt2T6r8XQJOqox05P2UwBY5Q5WQ2gRknJvC4w/j3xyffPLJDV988cV/aGzshpBz4MCBPK+++ur9OP66IG/evClMN3DXJeB4MCVsE1dCgQd8VaQIiEBMCWhdCwM/k24i11OBvn37PvHll19eE65HFeLy+PhTuBk4cGCPN9544z4Tq4d16PP/BCTgaDaIgAiIgAiIgMcEeHyUnp6ehiOlUj179nzrhRdeeARRktNDrRZ2Nsc3bdpU4rHHHnvh2Wef7QPNUB4aMpu8gaGWl8zXy58smUdXfRMBERAB9wnoqC0LplkFRkUQPl9uP3g9FXj66aefmTp1asvx48f3a9GixRQk5TwUbKhovzN69Ohzr7jiigdmzpzZAvecJNgoKOvJBCXgBJtR+rsIiIAIuENARzvucEz4Uijk5MuXL9vPP/98IQScM88999wRsM8Z2qRJk2nICL4Wmp59uOYYBKKczIW1ZMmSGlOmTGl92WWXdWJMHR5JURsUbgLQhAfosAMScByC0mUiIAIiIAIi4AYBc5wEIScNQkyBIUOGXD5s2LBOhQoV2l66dOn1+LkLf9sH4aYAsnsX27JlSwnGuMG12WlMTM2NEW6SMcWCG4xZhgQct0gGLieZVLnJ1BdvR12li0DyE9B64MIYm6B8FFhgIJwT6RxKwJ28hBU7xyfE8N+0saEBMd3Nqf0xv2cTdCyV+UBIwHFhkqoIERABEXBAQEKBA0ipdomVaf6E0EKtDj8UYvilQGMXYuzCTaqxCrW/EnBCJabrRUAERCB0AhJuQmeWMncYAYY/kc7hRL/9hRv+QakYnE8LuYk7Z6UrRUAERCASAski5CRLPyIZy6jcq+OnyDBLwImMX0rdjYdNXiApNeLqrAiIgAgkLgEJOIk7dlFruVSiUUOtipKbgDQfyT2+6l2cEZANjrcD4lvQEtmNz6Yi1eLs7VxR6UlMgDFNsA4c12YhiQc5Rl1zMqdS9ahLGhwPJiVzjHAxM0c6iT65aOhGOc0DVCpSBFKGQDIc8Tp5mabMgKqjcU9AAo5HQwRXvuywhvdpyBJdwLEs+zVXPJorKjb5CVjCTcJrQS1tNH5kS/i+hDDrtLkLAVY8XaqXlkejwQUAQZmOmCMqj6rxvFhqb/hFX46m2KLmOVtVkDoEEKTtCJ6fY8mw2cF6cBRpAvamzuipp4lKQAKORyNH4aZUqVLruaAlilrXvviaf1O4YVyGEiVKbMIi/f8BGjzipmJFIBkJFC9efDPD8DNIW6IJOfb1i2sBAtHtxdq2IRnHSX3yEUgajZUEHI9mNO1wTjvttN9Lliy5iRlkzSJhFrh4TG1vX8jMv7mgoS+HO3bs+AO1OB7hUrEikNQEqlSpsrRZs2ZT+TyZyLWJ8tNooa0s2GmNGzeeWaNGjYVJPWDqXFIQkIDjwTBCiPFJwC1atJh05ZVXfgZh5jCFHH7MkQ9/xqtmx+ww2eYDBw6kdejQYcQll1zyjQeoVKQIpAQB5Bo6dPPNN79eqVKlFXyu4nGDk9VAcGO2f//+tKJFi267/fbbX8nIyNiTEgOHTtJ+ygijqdBn9NcnF5j3WCL3WW7iHowetTecHPi5f926df34gHz33XdXIyNsMev3Pi8rU3UMBR3TBt9PLrpYfOn+lY1J3XDOvv/cc88d3qtXr0e5oJm2e4BMRYpA0hNo3br1+Oeee+6+/v37P4aEinWhzeGz5lOQWJ3nz3g5HrCvDdlwPH28bt26C+++++7+WBN+TqW14PDhw3QYYbLLQ9ZL34yT07GyG2Q7vSfL5yELj7xwjb997WL/OCetn/xduOXFxfPsCuy46EmcNcI2QdJ2796dMXfu3IZY1Bps27atmBUPgxPHxz9OjHcplGW33NuZvfZIw4YNZzZp0mQahJtd/D0e8GNxhlnNEYGEI7B48eKaU6dObblp06ZSeHHmsAk3gfpi1uiYvWj47NPmpnnz5pOqVau2mOtAqgg4GJ/sn332Wde1a9eWx6bvMOMZZTLhovYupXBjvk4nv5N3DMvkO6BevXp/n3/++T9ybvI94LSOeLwuaoMSj533uk1GyLELBty1mXq5K/K6DeGWD01ODmNzw4ec5UjACZem7hOBNBrr+zYQRsNrbShOvDDdWg/MGhNpeba1ihqcE+1MFeHGzFkzbhyveLBDNOMSJK7SSe92evA5EczYRzqTxEtfI103JOBESjDI/fZzTC5sHlfnavGm7YnWblchqDARcIlAIq8FLiFQMSIQVQIScDzEHcxIy4ngEKwMNt+tcjJD4aR8DzGqaBFICgJOnmU3n2cnz62bbUqKQVInkoqAjIw9Gk6nC4dH1btarH9fnCycrjZAhYlAghNIpvUgwYdCzRcBERABERABERABERCBxCXg+hEVPIYKTJgw4SwHieWc1h1vditB25NJ3/2NvoKWw2nlgKNjLywT38A2XR21wX96Wxb5Qe8NUN+/nhSn1v1OHjG/sgLOL5d5Bp3DTvrn5jg76R/rc9IuJ2U5KceF/p0019xql1vl2PoX9JmwzeOAcydKPE96nMLgELCfTsoJYe6ZGG2ZMvWAVaju3P5jeMIzNtI11sl65+E1TuZx0LUvwFwPVK6PGVOZtGrVakKBAgX2uHlCEEojHfFkfIf27dtPRuyAApiAdDELFEwwq3qzgusEvKN2ZnKRf/nB/u9b26yyTlxre9D9++kv5GTVVt+1TsK6O3jQfW6FIYDJbCL6inASt8eJkOdgsTMMnLSdwbiCzg8nHByW4xinQ15By3OrHAfcfW1xwsrNshxyD/RS+Rc7h6yCzat/gtScPK8CrgmZsPK/NlB9//pdiBxCFQBOqi/EMf7XWmcH71dWpmyt/mXJPki7Ao1LwOcnwPoZkJfffDFty6qN9r+F8p6wtzPY/DPXOplHQdePTC4wbbCPLf9t/m9nkRkX/2t9j41VX2Z9PFEfPbbgjr53zJgxrerUqTM/3I4Eus91GxxOXjQ4J4MjQSrL7WZjE6UsJ0JJCIJC0G47XMyDluP0Aif1WS/IoEU6KSseebrZPzfLSnZW0e6fm89p0IfBvBGyBX/vOeHg5NnS3PsHulNWTsdQ1zknwLmMb05bTCjnNwe50nUBx0rIeIwTxj5pUmkCOVl8nD5UTspywtZJOU5nldP6nFzn5BqnbXerLCfluPlicLOsaLOK13nsZAxjwcrJM+ZW252W4+Q6J9dEm6eTNrn5bDkZO10TOgGmAYFww0Cyruc6dD0XFdVNzLOkjwiIgAiIgAiIgAgEIwDhJtglYf3ddQ0Oz07xZcROn/2IkbKdSvdh9SJBb3KLiVvlOMXoZn3xWFY8tsnpTjSRxzAVuDsZH7c4uFVOvM69eO2fkzHWNf9PwJITGOHb9VRAUrVopomACIiACIiACCQdAQk4STek6pAIiIAIiIAIJBYBpx59ofRKAk4otHStCIiACIiACIiA2wSCuw6GUaMEnDCg6RYREAEREAEREAHXCEjAcQ2lChIBERABERABEUhqAtLgJPXwqnMiIAIiIAIiEPcEgkahD6cHXgk4njQ2nA7qHhEQAREQAREQgdQj4JWAk3ok1WMREAEREAEREIG4ISABJ26GQg0RAREQAREQARFwi4BXAo6OqNwaIZUjAiIgAiIgAiIQMgGvBJyQG6IbREAEREAEREAERMAtAhJw3CKpckRABERABERABOKGgGcCjpuJ0OKGlhoiAiIgAiIgAiLgKgEk5fbErMUzAcdkEXeVggoTAREQAREQAREQAQcEvBJwPAm77KA/ukQEREAEREAERCCBCODExxNZJKfbDI4dO5Z93759+Q4fPpyWPXv2tDA1Of7qKglMbg+UyhMBERABERCBGBOAzMAWuC6LeFJoRkbG7o4dOw6lRAbh5mgmZ2uenLfFeJwCVS/BLA4HRU0SAREIiYCX67UXa6SX7Q0JXAJc7BarcMcRosLx7Dlz5jwC2WGX27zCbVTAdkASy2ZpcNKhvTnmleGQ2xBUngiIgAiIgAiIQFQIGKHqJPkjf/78+6JSuyoRAREQAREQAREQAREQAREQAREQAREQAREQAREQAREQAREQAREQAREQAREQAREQAREQAREQAREQAREQAREQAREQAREQAREQAREQAREQAREQAREQAREQAREQAREQAREQAREQAREQAREQAREQAREQAREQAREQAREQAREQAREQAREQAREQAREQAREQAREQAREQAREQAREQAREQAREQAREQAREQAREQAREQAREQAREQAREQAREQAREQAREQAREQAREQAREQAREQAREQAREQAREQAREQAREQAREQAREQAREQAREQAREQAREQAREQAREQAREQAREQAREQAREQAREQAREQAREQAREQAREQAREQAREQAREQAREQAREQAREQAREQAREQAREQAREQAREQAREQAREQAREQAREQAREQAREQAREQAREQAREQAREQAREQAREQAREQAREQAREQAREQAREQAREQAREQAREQAREQAREQAREQAREQAREQAREQAREQAREQAREQAREQAREQAREQAREQAREQAREQAREQAREQAREQAREQAREQAREQAREQAREQAREQAREQAREQAREQAREQAREQAREQAREQAREQAREQAREQAREQAREQAREQAREQAREQAREQAREQAREQAREQAREQAREQAREQAREQAREQgYQk8H+S2JW/zDEMVQAAAABJRU5ErkJggg==;" vertex="1" parent="1">
          <mxGeometry x="362" y="210" width="103.51" height="80" as="geometry" />
        </mxCell>
        <mxCell id="Z0XVSoQSKU2gHx4yaWDS-11" value="&lt;b style=&quot;font-size: 12px;&quot;&gt;Car Contract:&lt;/b&gt;&lt;br&gt;&lt;font style=&quot;font-size: 8px;&quot;&gt;0xfb10b426D952E7cb6740Ad0c832a0F48b652742F&lt;/font&gt;" style="outlineConnect=0;dashed=0;verticalLabelPosition=bottom;verticalAlign=top;align=center;html=1;shape=mxgraph.aws3.car;fillColor=#5294CF;gradientColor=none;" vertex="1" parent="1">
          <mxGeometry x="570" y="585" width="79.5" height="79.5" as="geometry" />
        </mxCell>
        <mxCell id="Z0XVSoQSKU2gHx4yaWDS-18" value="&lt;div&gt;&lt;b&gt;Automotive company&lt;/b&gt;&lt;/div&gt;&lt;div&gt;&lt;br&gt;&lt;/div&gt;" style="text;html=1;strokeColor=none;fillColor=none;align=center;verticalAlign=middle;whiteSpace=wrap;rounded=0;" vertex="1" parent="1">
          <mxGeometry x="340" y="190" width="146" height="50" as="geometry" />
        </mxCell>
        <mxCell id="Z0XVSoQSKU2gHx4yaWDS-20" style="edgeStyle=orthogonalEdgeStyle;rounded=0;orthogonalLoop=1;jettySize=auto;html=1;entryX=0.5;entryY=0;entryDx=0;entryDy=0;entryPerimeter=0;strokeWidth=2;" edge="1" parent="1" target="Z0XVSoQSKU2gHx4yaWDS-22">
          <mxGeometry relative="1" as="geometry">
            <mxPoint x="420" y="530" as="sourcePoint" />
          </mxGeometry>
        </mxCell>
        <mxCell id="Z0XVSoQSKU2gHx4yaWDS-21" value="CreateCarContract()" style="edgeLabel;html=1;align=center;verticalAlign=middle;resizable=0;points=[];" vertex="1" connectable="0" parent="Z0XVSoQSKU2gHx4yaWDS-20">
          <mxGeometry x="0.2276" y="-1" relative="1" as="geometry">
            <mxPoint as="offset" />
          </mxGeometry>
        </mxCell>
        <mxCell id="Z0XVSoQSKU2gHx4yaWDS-22" value="&lt;b style=&quot;font-size: 12px;&quot;&gt;Car Contract:&lt;/b&gt;&lt;br&gt;&lt;font style=&quot;font-size: 8px;&quot;&gt;0xBB9bc244D798123fDe783fCc1C72d3Bb8C189413&lt;/font&gt;" style="outlineConnect=0;dashed=0;verticalLabelPosition=bottom;verticalAlign=top;align=center;html=1;shape=mxgraph.aws3.car;fillColor=#5294CF;gradientColor=none;" vertex="1" parent="1">
          <mxGeometry x="380" y="630" width="79.5" height="79.5" as="geometry" />
        </mxCell>
        <mxCell id="Z0XVSoQSKU2gHx4yaWDS-23" style="edgeStyle=orthogonalEdgeStyle;rounded=0;orthogonalLoop=1;jettySize=auto;html=1;entryX=0.5;entryY=0;entryDx=0;entryDy=0;entryPerimeter=0;strokeWidth=2;" edge="1" parent="1" target="Z0XVSoQSKU2gHx4yaWDS-25" source="Z0XVSoQSKU2gHx4yaWDS-1">
          <mxGeometry relative="1" as="geometry">
            <mxPoint x="40" y="500" as="sourcePoint" />
          </mxGeometry>
        </mxCell>
        <mxCell id="Z0XVSoQSKU2gHx4yaWDS-24" value="CreateCarContract()" style="edgeLabel;html=1;align=center;verticalAlign=middle;resizable=0;points=[];" vertex="1" connectable="0" parent="Z0XVSoQSKU2gHx4yaWDS-23">
          <mxGeometry x="0.2276" y="-1" relative="1" as="geometry">
            <mxPoint as="offset" />
          </mxGeometry>
        </mxCell>
        <mxCell id="Z0XVSoQSKU2gHx4yaWDS-25" value="&lt;b style=&quot;font-size: 12px;&quot;&gt;Car Contract:&lt;/b&gt;&lt;br&gt;&lt;div&gt;&lt;font style=&quot;font-size: 8px;&quot;&gt;0x742d35Cc6634C0532925a3b844Bc454e4438f44e&lt;/font&gt;&lt;/div&gt;&lt;div style=&quot;font-size: 10px;&quot;&gt;&lt;br&gt;&lt;/div&gt;" style="outlineConnect=0;dashed=0;verticalLabelPosition=bottom;verticalAlign=top;align=center;html=1;shape=mxgraph.aws3.car;fillColor=#5294CF;gradientColor=none;" vertex="1" parent="1">
          <mxGeometry x="196" y="585" width="79.5" height="79.5" as="geometry" />
        </mxCell>
        <mxCell id="Z0XVSoQSKU2gHx4yaWDS-26" style="edgeStyle=orthogonalEdgeStyle;rounded=0;orthogonalLoop=1;jettySize=auto;html=1;exitX=0.5;exitY=1.2;exitDx=0;exitDy=0;entryX=0.5;entryY=0;entryDx=0;entryDy=0;entryPerimeter=0;strokeWidth=2;exitPerimeter=0;" edge="1" parent="1" source="Z0XVSoQSKU2gHx4yaWDS-28" target="Z0XVSoQSKU2gHx4yaWDS-29">
          <mxGeometry relative="1" as="geometry" />
        </mxCell>
        <mxCell id="Z0XVSoQSKU2gHx4yaWDS-27" value="UpdateKms()" style="edgeLabel;html=1;align=center;verticalAlign=middle;resizable=0;points=[];" vertex="1" connectable="0" parent="Z0XVSoQSKU2gHx4yaWDS-26">
          <mxGeometry x="0.2276" y="-1" relative="1" as="geometry">
            <mxPoint x="1" y="-6" as="offset" />
          </mxGeometry>
        </mxCell>
        <mxCell id="Z0XVSoQSKU2gHx4yaWDS-33" style="edgeStyle=orthogonalEdgeStyle;rounded=0;orthogonalLoop=1;jettySize=auto;html=1;entryX=1;entryY=0.5;entryDx=0;entryDy=0;entryPerimeter=0;strokeWidth=2;" edge="1" parent="1" source="Z0XVSoQSKU2gHx4yaWDS-28" target="Z0XVSoQSKU2gHx4yaWDS-29">
          <mxGeometry relative="1" as="geometry">
            <Array as="points">
              <mxPoint x="1280" y="440" />
              <mxPoint x="1280" y="670" />
            </Array>
          </mxGeometry>
        </mxCell>
        <mxCell id="Z0XVSoQSKU2gHx4yaWDS-35" value="AddAccident()" style="edgeLabel;html=1;align=center;verticalAlign=middle;resizable=0;points=[];" vertex="1" connectable="0" parent="Z0XVSoQSKU2gHx4yaWDS-33">
          <mxGeometry x="0.0764" y="-3" relative="1" as="geometry">
            <mxPoint y="-7" as="offset" />
          </mxGeometry>
        </mxCell>
        <mxCell id="Z0XVSoQSKU2gHx4yaWDS-34" style="edgeStyle=orthogonalEdgeStyle;rounded=0;orthogonalLoop=1;jettySize=auto;html=1;exitX=0.006;exitY=0.697;exitDx=0;exitDy=0;entryX=0;entryY=0.5;entryDx=0;entryDy=0;entryPerimeter=0;exitPerimeter=0;strokeWidth=2;" edge="1" parent="1" source="Z0XVSoQSKU2gHx4yaWDS-28" target="Z0XVSoQSKU2gHx4yaWDS-29">
          <mxGeometry relative="1" as="geometry">
            <Array as="points">
              <mxPoint x="980" y="440" />
              <mxPoint x="980" y="670" />
            </Array>
          </mxGeometry>
        </mxCell>
        <mxCell id="Z0XVSoQSKU2gHx4yaWDS-36" value="AddReparation()" style="edgeLabel;html=1;align=center;verticalAlign=middle;resizable=0;points=[];" vertex="1" connectable="0" parent="Z0XVSoQSKU2gHx4yaWDS-34">
          <mxGeometry x="0.0786" relative="1" as="geometry">
            <mxPoint y="-7" as="offset" />
          </mxGeometry>
        </mxCell>
        <mxCell id="Z0XVSoQSKU2gHx4yaWDS-28" value="&lt;font style=&quot;&quot;&gt;&lt;b style=&quot;&quot;&gt;&lt;font style=&quot;font-size: 12px;&quot;&gt;CarFactory Contract&lt;/font&gt;&lt;br&gt;&lt;/b&gt;&lt;/font&gt;" style="shape=image;html=1;verticalAlign=top;verticalLabelPosition=bottom;labelBackgroundColor=#ffffff;imageAspect=0;aspect=fixed;image=https://cdn2.iconfinder.com/data/icons/vivid/48/industry-128.png" vertex="1" parent="1">
          <mxGeometry x="1075.75" y="370" width="100" height="100" as="geometry" />
        </mxCell>
        <mxCell id="Z0XVSoQSKU2gHx4yaWDS-29" value="&lt;b style=&quot;font-size: 12px;&quot;&gt;Car Contract:&lt;/b&gt;&lt;br&gt;&lt;font style=&quot;font-size: 8px;&quot;&gt;0xfb10b426D952E7cb6740Ad0c832a0F48b652742F&lt;/font&gt;" style="outlineConnect=0;dashed=0;verticalLabelPosition=bottom;verticalAlign=top;align=center;html=1;shape=mxgraph.aws3.car;fillColor=#5294CF;gradientColor=none;" vertex="1" parent="1">
          <mxGeometry x="1086" y="630" width="79.5" height="79.5" as="geometry" />
        </mxCell>
        <mxCell id="Z0XVSoQSKU2gHx4yaWDS-32" style="edgeStyle=orthogonalEdgeStyle;rounded=0;orthogonalLoop=1;jettySize=auto;html=1;strokeWidth=2;" edge="1" parent="1" source="Z0XVSoQSKU2gHx4yaWDS-31" target="Z0XVSoQSKU2gHx4yaWDS-28">
          <mxGeometry relative="1" as="geometry" />
        </mxCell>
        <mxCell id="Z0XVSoQSKU2gHx4yaWDS-37" style="edgeStyle=orthogonalEdgeStyle;rounded=0;orthogonalLoop=1;jettySize=auto;html=1;exitX=0.5;exitY=1;exitDx=0;exitDy=0;entryX=0;entryY=0;entryDx=0;entryDy=0;strokeWidth=2;" edge="1" parent="1" source="Z0XVSoQSKU2gHx4yaWDS-31" target="Z0XVSoQSKU2gHx4yaWDS-28">
          <mxGeometry relative="1" as="geometry" />
        </mxCell>
        <mxCell id="Z0XVSoQSKU2gHx4yaWDS-38" style="edgeStyle=orthogonalEdgeStyle;rounded=0;orthogonalLoop=1;jettySize=auto;html=1;exitX=0.5;exitY=1;exitDx=0;exitDy=0;entryX=1;entryY=0;entryDx=0;entryDy=0;strokeWidth=2;" edge="1" parent="1" source="Z0XVSoQSKU2gHx4yaWDS-31" target="Z0XVSoQSKU2gHx4yaWDS-28">
          <mxGeometry relative="1" as="geometry" />
        </mxCell>
        <mxCell id="Z0XVSoQSKU2gHx4yaWDS-39" value="UpdateCarInformation()" style="edgeLabel;html=1;align=center;verticalAlign=middle;resizable=0;points=[];" vertex="1" connectable="0" parent="Z0XVSoQSKU2gHx4yaWDS-38">
          <mxGeometry x="-0.4695" y="-1" relative="1" as="geometry">
            <mxPoint as="offset" />
          </mxGeometry>
        </mxCell>
        <mxCell id="Z0XVSoQSKU2gHx4yaWDS-31" value="" style="shape=image;html=1;verticalAlign=top;verticalLabelPosition=bottom;labelBackgroundColor=#ffffff;imageAspect=0;aspect=fixed;image=https://cdn2.iconfinder.com/data/icons/boxicons-solid-vol-1/24/bxs-car-garage-128.png" vertex="1" parent="1">
          <mxGeometry x="1087.8700000000001" y="160" width="75.75" height="75.75" as="geometry" />
        </mxCell>
      </root>
    </mxGraphModel>
  </diagram>
</mxfile>
